%TF.GenerationSoftware,KiCad,Pcbnew,(5.1.10)-1*%
%TF.CreationDate,2021-09-09T10:08:14-05:00*%
%TF.ProjectId,ControlMotores,436f6e74-726f-46c4-9d6f-746f7265732e,rev?*%
%TF.SameCoordinates,PX6bac358PY737c164*%
%TF.FileFunction,Legend,Top*%
%TF.FilePolarity,Positive*%
%FSLAX46Y46*%
G04 Gerber Fmt 4.6, Leading zero omitted, Abs format (unit mm)*
G04 Created by KiCad (PCBNEW (5.1.10)-1) date 2021-09-09 10:08:14*
%MOMM*%
%LPD*%
G01*
G04 APERTURE LIST*
%ADD10C,0.120000*%
%ADD11C,0.150000*%
G04 APERTURE END LIST*
D10*
%TO.C,C3*%
X42457000Y6235500D02*
X42522000Y6235500D01*
X40282000Y6235500D02*
X40347000Y6235500D01*
X42457000Y2995500D02*
X42522000Y2995500D01*
X40282000Y2995500D02*
X40347000Y2995500D01*
X42522000Y2995500D02*
X42522000Y6235500D01*
X40282000Y2995500D02*
X40282000Y6235500D01*
%TO.C,C2*%
X12395000Y4088500D02*
X12395000Y4023500D01*
X12395000Y6263500D02*
X12395000Y6198500D01*
X9155000Y4088500D02*
X9155000Y4023500D01*
X9155000Y6263500D02*
X9155000Y6198500D01*
X9155000Y4023500D02*
X12395000Y4023500D01*
X9155000Y6263500D02*
X12395000Y6263500D01*
%TO.C,C1*%
X16041000Y36588500D02*
X16106000Y36588500D01*
X13866000Y36588500D02*
X13931000Y36588500D01*
X16041000Y33348500D02*
X16106000Y33348500D01*
X13866000Y33348500D02*
X13931000Y33348500D01*
X16106000Y33348500D02*
X16106000Y36588500D01*
X13866000Y33348500D02*
X13866000Y36588500D01*
%TO.C,U1*%
X18739000Y19460167D02*
X18739000Y9993501D01*
X19099000Y19460167D02*
X18739000Y19460167D01*
X19099000Y28926833D02*
X19099000Y19460167D01*
X18739000Y28926833D02*
X19099000Y28926833D01*
X18739000Y38393500D02*
X18739000Y28926833D01*
X56699000Y38393499D02*
X18739000Y38393500D01*
X56699000Y9993500D02*
X56699000Y38393499D01*
X18739000Y9993501D02*
X56699000Y9993500D01*
%TO.C,SW1*%
X1905000Y26670000D02*
X1905000Y36830000D01*
X635000Y26670000D02*
X8255000Y26670000D01*
X8255000Y26670000D02*
X8255000Y36830000D01*
X8255000Y36830000D02*
X635000Y36830000D01*
X635000Y36830000D02*
X635000Y26670000D01*
%TO.C,R2*%
X22464000Y24732500D02*
X22464000Y22892500D01*
X22464000Y22892500D02*
X26304000Y22892500D01*
X26304000Y22892500D02*
X26304000Y24732500D01*
X26304000Y24732500D02*
X22464000Y24732500D01*
X21514000Y23812500D02*
X22464000Y23812500D01*
X27254000Y23812500D02*
X26304000Y23812500D01*
%TO.C,R1*%
X22464000Y29431500D02*
X22464000Y27591500D01*
X22464000Y27591500D02*
X26304000Y27591500D01*
X26304000Y27591500D02*
X26304000Y29431500D01*
X26304000Y29431500D02*
X22464000Y29431500D01*
X21514000Y28511500D02*
X22464000Y28511500D01*
X27254000Y28511500D02*
X26304000Y28511500D01*
%TO.C,J6*%
X2099000Y15744500D02*
X2099000Y13084500D01*
X7239000Y15744500D02*
X2099000Y15744500D01*
X7239000Y13084500D02*
X2099000Y13084500D01*
X7239000Y15744500D02*
X7239000Y13084500D01*
X8509000Y15744500D02*
X9839000Y15744500D01*
X9839000Y15744500D02*
X9839000Y14414500D01*
%TO.C,J5*%
X54035000Y3813500D02*
X54035000Y6473500D01*
X46355000Y3813500D02*
X54035000Y3813500D01*
X46355000Y6473500D02*
X54035000Y6473500D01*
X46355000Y3813500D02*
X46355000Y6473500D01*
X45085000Y3813500D02*
X43755000Y3813500D01*
X43755000Y3813500D02*
X43755000Y5143500D01*
%TO.C,J4*%
X41589000Y41913500D02*
X41589000Y44573500D01*
X23749000Y41913500D02*
X41589000Y41913500D01*
X23749000Y44573500D02*
X41589000Y44573500D01*
X23749000Y41913500D02*
X23749000Y44573500D01*
X22479000Y41913500D02*
X21149000Y41913500D01*
X21149000Y41913500D02*
X21149000Y43243500D01*
%TO.C,J3*%
X54924000Y42040500D02*
X54924000Y44700500D01*
X47244000Y42040500D02*
X54924000Y42040500D01*
X47244000Y44700500D02*
X54924000Y44700500D01*
X47244000Y42040500D02*
X47244000Y44700500D01*
X45974000Y42040500D02*
X44644000Y42040500D01*
X44644000Y42040500D02*
X44644000Y43370500D01*
%TO.C,J2*%
X35874000Y3813500D02*
X35874000Y6473500D01*
X18034000Y3813500D02*
X35874000Y3813500D01*
X18034000Y6473500D02*
X35874000Y6473500D01*
X18034000Y3813500D02*
X18034000Y6473500D01*
X16764000Y3813500D02*
X15434000Y3813500D01*
X15434000Y3813500D02*
X15434000Y5143500D01*
%TO.C,J1*%
X9465000Y45064500D02*
X14665000Y45064500D01*
X14665000Y45064500D02*
X14665000Y47724500D01*
X14665000Y47724500D02*
X9465000Y47724500D01*
X9465000Y47724500D02*
X9465000Y45064500D01*
X10415000Y47724500D02*
X10415000Y53724500D01*
X10415000Y53724500D02*
X11175000Y53724500D01*
X11175000Y53724500D02*
X11175000Y47724500D01*
X10475000Y47724500D02*
X10475000Y53724500D01*
X10595000Y47724500D02*
X10595000Y53724500D01*
X10715000Y47724500D02*
X10715000Y53724500D01*
X10835000Y47724500D02*
X10835000Y53724500D01*
X10955000Y47724500D02*
X10955000Y53724500D01*
X11075000Y47724500D02*
X11075000Y53724500D01*
X10415000Y44734500D02*
X10415000Y45064500D01*
X11175000Y44734500D02*
X11175000Y45064500D01*
X12065000Y45064500D02*
X12065000Y47724500D01*
X12955000Y47724500D02*
X12955000Y53724500D01*
X12955000Y53724500D02*
X13715000Y53724500D01*
X13715000Y53724500D02*
X13715000Y47724500D01*
X12955000Y44667429D02*
X12955000Y45064500D01*
X13715000Y44667429D02*
X13715000Y45064500D01*
X10795000Y42354500D02*
X9525000Y42354500D01*
X9525000Y42354500D02*
X9525000Y43624500D01*
%TO.C,D1*%
X2607000Y23110500D02*
X2607000Y20450500D01*
X5207000Y23110500D02*
X2607000Y23110500D01*
X5207000Y20450500D02*
X2607000Y20450500D01*
X5207000Y23110500D02*
X5207000Y20450500D01*
X6477000Y23110500D02*
X7807000Y23110500D01*
X7807000Y23110500D02*
X7807000Y21780500D01*
%TO.C,C3*%
D11*
X41235333Y7453358D02*
X41187714Y7405739D01*
X41044857Y7358120D01*
X40949619Y7358120D01*
X40806761Y7405739D01*
X40711523Y7500977D01*
X40663904Y7596215D01*
X40616285Y7786691D01*
X40616285Y7929548D01*
X40663904Y8120024D01*
X40711523Y8215262D01*
X40806761Y8310500D01*
X40949619Y8358120D01*
X41044857Y8358120D01*
X41187714Y8310500D01*
X41235333Y8262881D01*
X41568666Y8358120D02*
X42187714Y8358120D01*
X41854380Y7977167D01*
X41997238Y7977167D01*
X42092476Y7929548D01*
X42140095Y7881929D01*
X42187714Y7786691D01*
X42187714Y7548596D01*
X42140095Y7453358D01*
X42092476Y7405739D01*
X41997238Y7358120D01*
X41711523Y7358120D01*
X41616285Y7405739D01*
X41568666Y7453358D01*
%TO.C,C2*%
X7199333Y4595858D02*
X7151714Y4548239D01*
X7008857Y4500620D01*
X6913619Y4500620D01*
X6770761Y4548239D01*
X6675523Y4643477D01*
X6627904Y4738715D01*
X6580285Y4929191D01*
X6580285Y5072048D01*
X6627904Y5262524D01*
X6675523Y5357762D01*
X6770761Y5453000D01*
X6913619Y5500620D01*
X7008857Y5500620D01*
X7151714Y5453000D01*
X7199333Y5405381D01*
X7580285Y5405381D02*
X7627904Y5453000D01*
X7723142Y5500620D01*
X7961238Y5500620D01*
X8056476Y5453000D01*
X8104095Y5405381D01*
X8151714Y5310143D01*
X8151714Y5214905D01*
X8104095Y5072048D01*
X7532666Y4500620D01*
X8151714Y4500620D01*
%TO.C,C1*%
X15406642Y31329334D02*
X15454261Y31281715D01*
X15501880Y31138858D01*
X15501880Y31043620D01*
X15454261Y30900762D01*
X15359023Y30805524D01*
X15263785Y30757905D01*
X15073309Y30710286D01*
X14930452Y30710286D01*
X14739976Y30757905D01*
X14644738Y30805524D01*
X14549500Y30900762D01*
X14501880Y31043620D01*
X14501880Y31138858D01*
X14549500Y31281715D01*
X14597119Y31329334D01*
X15501880Y32281715D02*
X15501880Y31710286D01*
X15501880Y31996000D02*
X14501880Y31996000D01*
X14644738Y31900762D01*
X14739976Y31805524D01*
X14787595Y31710286D01*
%TO.C,MH3*%
X57975666Y42410120D02*
X57975666Y43410120D01*
X58309000Y42695834D01*
X58642333Y43410120D01*
X58642333Y42410120D01*
X59118523Y42410120D02*
X59118523Y43410120D01*
X59118523Y42933929D02*
X59689952Y42933929D01*
X59689952Y42410120D02*
X59689952Y43410120D01*
X60070904Y43410120D02*
X60689952Y43410120D01*
X60356619Y43029167D01*
X60499476Y43029167D01*
X60594714Y42981548D01*
X60642333Y42933929D01*
X60689952Y42838691D01*
X60689952Y42600596D01*
X60642333Y42505358D01*
X60594714Y42457739D01*
X60499476Y42410120D01*
X60213761Y42410120D01*
X60118523Y42457739D01*
X60070904Y42505358D01*
%TO.C,MH4*%
X2095666Y42346620D02*
X2095666Y43346620D01*
X2429000Y42632334D01*
X2762333Y43346620D01*
X2762333Y42346620D01*
X3238523Y42346620D02*
X3238523Y43346620D01*
X3238523Y42870429D02*
X3809952Y42870429D01*
X3809952Y42346620D02*
X3809952Y43346620D01*
X4714714Y43013286D02*
X4714714Y42346620D01*
X4476619Y43394239D02*
X4238523Y42679953D01*
X4857571Y42679953D01*
%TO.C,MH2*%
X57975666Y6723120D02*
X57975666Y7723120D01*
X58309000Y7008834D01*
X58642333Y7723120D01*
X58642333Y6723120D01*
X59118523Y6723120D02*
X59118523Y7723120D01*
X59118523Y7246929D02*
X59689952Y7246929D01*
X59689952Y6723120D02*
X59689952Y7723120D01*
X60118523Y7627881D02*
X60166142Y7675500D01*
X60261380Y7723120D01*
X60499476Y7723120D01*
X60594714Y7675500D01*
X60642333Y7627881D01*
X60689952Y7532643D01*
X60689952Y7437405D01*
X60642333Y7294548D01*
X60070904Y6723120D01*
X60689952Y6723120D01*
%TO.C,MH1*%
X1841666Y6667120D02*
X1841666Y7667120D01*
X2175000Y6952834D01*
X2508333Y7667120D01*
X2508333Y6667120D01*
X2984523Y6667120D02*
X2984523Y7667120D01*
X2984523Y7190929D02*
X3555952Y7190929D01*
X3555952Y6667120D02*
X3555952Y7667120D01*
X4555952Y6667120D02*
X3984523Y6667120D01*
X4270238Y6667120D02*
X4270238Y7667120D01*
X4175000Y7524262D01*
X4079761Y7429024D01*
X3984523Y7381405D01*
%TO.C,U1*%
X58634380Y36131596D02*
X59443904Y36131596D01*
X59539142Y36179215D01*
X59586761Y36226834D01*
X59634380Y36322072D01*
X59634380Y36512548D01*
X59586761Y36607786D01*
X59539142Y36655405D01*
X59443904Y36703024D01*
X58634380Y36703024D01*
X59634380Y37703024D02*
X59634380Y37131596D01*
X59634380Y37417310D02*
X58634380Y37417310D01*
X58777238Y37322072D01*
X58872476Y37226834D01*
X58920095Y37131596D01*
%TO.C,SW1*%
X3175166Y37441239D02*
X3318023Y37393620D01*
X3556119Y37393620D01*
X3651357Y37441239D01*
X3698976Y37488858D01*
X3746595Y37584096D01*
X3746595Y37679334D01*
X3698976Y37774572D01*
X3651357Y37822191D01*
X3556119Y37869810D01*
X3365642Y37917429D01*
X3270404Y37965048D01*
X3222785Y38012667D01*
X3175166Y38107905D01*
X3175166Y38203143D01*
X3222785Y38298381D01*
X3270404Y38346000D01*
X3365642Y38393620D01*
X3603738Y38393620D01*
X3746595Y38346000D01*
X4079928Y38393620D02*
X4318023Y37393620D01*
X4508500Y38107905D01*
X4698976Y37393620D01*
X4937071Y38393620D01*
X5841833Y37393620D02*
X5270404Y37393620D01*
X5556119Y37393620D02*
X5556119Y38393620D01*
X5460880Y38250762D01*
X5365642Y38155524D01*
X5270404Y38107905D01*
%TO.C,R2*%
X20407333Y25265120D02*
X20074000Y25741310D01*
X19835904Y25265120D02*
X19835904Y26265120D01*
X20216857Y26265120D01*
X20312095Y26217500D01*
X20359714Y26169881D01*
X20407333Y26074643D01*
X20407333Y25931786D01*
X20359714Y25836548D01*
X20312095Y25788929D01*
X20216857Y25741310D01*
X19835904Y25741310D01*
X20788285Y26169881D02*
X20835904Y26217500D01*
X20931142Y26265120D01*
X21169238Y26265120D01*
X21264476Y26217500D01*
X21312095Y26169881D01*
X21359714Y26074643D01*
X21359714Y25979405D01*
X21312095Y25836548D01*
X20740666Y25265120D01*
X21359714Y25265120D01*
%TO.C,R1*%
X20407333Y29964120D02*
X20074000Y30440310D01*
X19835904Y29964120D02*
X19835904Y30964120D01*
X20216857Y30964120D01*
X20312095Y30916500D01*
X20359714Y30868881D01*
X20407333Y30773643D01*
X20407333Y30630786D01*
X20359714Y30535548D01*
X20312095Y30487929D01*
X20216857Y30440310D01*
X19835904Y30440310D01*
X21359714Y29964120D02*
X20788285Y29964120D01*
X21074000Y29964120D02*
X21074000Y30964120D01*
X20978761Y30821262D01*
X20883523Y30726024D01*
X20788285Y30678405D01*
%TO.C,J6*%
X10291380Y14081167D02*
X11005666Y14081167D01*
X11148523Y14033548D01*
X11243761Y13938310D01*
X11291380Y13795453D01*
X11291380Y13700215D01*
X10291380Y14985929D02*
X10291380Y14795453D01*
X10339000Y14700215D01*
X10386619Y14652596D01*
X10529476Y14557358D01*
X10719952Y14509739D01*
X11100904Y14509739D01*
X11196142Y14557358D01*
X11243761Y14604977D01*
X11291380Y14700215D01*
X11291380Y14890691D01*
X11243761Y14985929D01*
X11196142Y15033548D01*
X11100904Y15081167D01*
X10862809Y15081167D01*
X10767571Y15033548D01*
X10719952Y14985929D01*
X10672333Y14890691D01*
X10672333Y14700215D01*
X10719952Y14604977D01*
X10767571Y14557358D01*
X10862809Y14509739D01*
%TO.C,J5*%
X53070166Y8167620D02*
X53070166Y7453334D01*
X53022547Y7310477D01*
X52927309Y7215239D01*
X52784452Y7167620D01*
X52689214Y7167620D01*
X54022547Y8167620D02*
X53546357Y8167620D01*
X53498738Y7691429D01*
X53546357Y7739048D01*
X53641595Y7786667D01*
X53879690Y7786667D01*
X53974928Y7739048D01*
X54022547Y7691429D01*
X54070166Y7596191D01*
X54070166Y7358096D01*
X54022547Y7262858D01*
X53974928Y7215239D01*
X53879690Y7167620D01*
X53641595Y7167620D01*
X53546357Y7215239D01*
X53498738Y7262858D01*
%TO.C,J4*%
X19478666Y43791120D02*
X19478666Y43076834D01*
X19431047Y42933977D01*
X19335809Y42838739D01*
X19192952Y42791120D01*
X19097714Y42791120D01*
X20383428Y43457786D02*
X20383428Y42791120D01*
X20145333Y43838739D02*
X19907238Y43124453D01*
X20526285Y43124453D01*
%TO.C,J3*%
X43096380Y43037167D02*
X43810666Y43037167D01*
X43953523Y42989548D01*
X44048761Y42894310D01*
X44096380Y42751453D01*
X44096380Y42656215D01*
X43096380Y43418120D02*
X43096380Y44037167D01*
X43477333Y43703834D01*
X43477333Y43846691D01*
X43524952Y43941929D01*
X43572571Y43989548D01*
X43667809Y44037167D01*
X43905904Y44037167D01*
X44001142Y43989548D01*
X44048761Y43941929D01*
X44096380Y43846691D01*
X44096380Y43560977D01*
X44048761Y43465739D01*
X44001142Y43418120D01*
%TO.C,J2*%
X13803380Y4810167D02*
X14517666Y4810167D01*
X14660523Y4762548D01*
X14755761Y4667310D01*
X14803380Y4524453D01*
X14803380Y4429215D01*
X13898619Y5238739D02*
X13851000Y5286358D01*
X13803380Y5381596D01*
X13803380Y5619691D01*
X13851000Y5714929D01*
X13898619Y5762548D01*
X13993857Y5810167D01*
X14089095Y5810167D01*
X14231952Y5762548D01*
X14803380Y5191120D01*
X14803380Y5810167D01*
%TO.C,J1*%
X11731666Y46966120D02*
X11731666Y46251834D01*
X11684047Y46108977D01*
X11588809Y46013739D01*
X11445952Y45966120D01*
X11350714Y45966120D01*
X12731666Y45966120D02*
X12160238Y45966120D01*
X12445952Y45966120D02*
X12445952Y46966120D01*
X12350714Y46823262D01*
X12255476Y46728024D01*
X12160238Y46680405D01*
%TO.C,D1*%
X9259380Y21042405D02*
X8259380Y21042405D01*
X8259380Y21280500D01*
X8307000Y21423358D01*
X8402238Y21518596D01*
X8497476Y21566215D01*
X8687952Y21613834D01*
X8830809Y21613834D01*
X9021285Y21566215D01*
X9116523Y21518596D01*
X9211761Y21423358D01*
X9259380Y21280500D01*
X9259380Y21042405D01*
X9259380Y22566215D02*
X9259380Y21994786D01*
X9259380Y22280500D02*
X8259380Y22280500D01*
X8402238Y22185262D01*
X8497476Y22090024D01*
X8545095Y21994786D01*
%TD*%
M02*
