%TF.GenerationSoftware,KiCad,Pcbnew,(5.1.10)-1*%
%TF.CreationDate,2021-09-09T10:08:14-05:00*%
%TF.ProjectId,ControlMotores,436f6e74-726f-46c4-9d6f-746f7265732e,rev?*%
%TF.SameCoordinates,PX6bac358PY737c164*%
%TF.FileFunction,Other,Fab,Top*%
%FSLAX46Y46*%
G04 Gerber Fmt 4.6, Leading zero omitted, Abs format (unit mm)*
G04 Created by KiCad (PCBNEW (5.1.10)-1) date 2021-09-09 10:08:14*
%MOMM*%
%LPD*%
G01*
G04 APERTURE LIST*
%ADD10C,0.150000*%
%ADD11C,0.100000*%
%ADD12C,0.108000*%
G04 APERTURE END LIST*
D10*
X6096047Y19550072D02*
X6857952Y19550072D01*
X3556047Y19677072D02*
X4317952Y19677072D01*
X3937000Y19296120D02*
X3937000Y20058024D01*
X53998761Y45109024D02*
X54046380Y45251881D01*
X54046380Y45489977D01*
X53998761Y45585215D01*
X53951142Y45632834D01*
X53855904Y45680453D01*
X53760666Y45680453D01*
X53665428Y45632834D01*
X53617809Y45585215D01*
X53570190Y45489977D01*
X53522571Y45299500D01*
X53474952Y45204262D01*
X53427333Y45156643D01*
X53332095Y45109024D01*
X53236857Y45109024D01*
X53141619Y45156643D01*
X53094000Y45204262D01*
X53046380Y45299500D01*
X53046380Y45537596D01*
X53094000Y45680453D01*
X53046380Y45966167D02*
X53046380Y46537596D01*
X54046380Y46251881D02*
X53046380Y46251881D01*
X53046380Y47061405D02*
X53046380Y47251881D01*
X53094000Y47347120D01*
X53189238Y47442358D01*
X53379714Y47489977D01*
X53713047Y47489977D01*
X53903523Y47442358D01*
X53998761Y47347120D01*
X54046380Y47251881D01*
X54046380Y47061405D01*
X53998761Y46966167D01*
X53903523Y46870929D01*
X53713047Y46823310D01*
X53379714Y46823310D01*
X53189238Y46870929D01*
X53094000Y46966167D01*
X53046380Y47061405D01*
X54046380Y47918548D02*
X53046380Y47918548D01*
X53046380Y48299500D01*
X53094000Y48394739D01*
X53141619Y48442358D01*
X53236857Y48489977D01*
X53379714Y48489977D01*
X53474952Y48442358D01*
X53522571Y48394739D01*
X53570190Y48299500D01*
X53570190Y47918548D01*
X51458761Y45077310D02*
X51506380Y45220167D01*
X51506380Y45458262D01*
X51458761Y45553500D01*
X51411142Y45601120D01*
X51315904Y45648739D01*
X51220666Y45648739D01*
X51125428Y45601120D01*
X51077809Y45553500D01*
X51030190Y45458262D01*
X50982571Y45267786D01*
X50934952Y45172548D01*
X50887333Y45124929D01*
X50792095Y45077310D01*
X50696857Y45077310D01*
X50601619Y45124929D01*
X50554000Y45172548D01*
X50506380Y45267786D01*
X50506380Y45505881D01*
X50554000Y45648739D01*
X50506380Y45934453D02*
X50506380Y46505881D01*
X51506380Y46220167D02*
X50506380Y46220167D01*
X51220666Y46791596D02*
X51220666Y47267786D01*
X51506380Y46696358D02*
X50506380Y47029691D01*
X51506380Y47363024D01*
X51506380Y48267786D02*
X51030190Y47934453D01*
X51506380Y47696358D02*
X50506380Y47696358D01*
X50506380Y48077310D01*
X50554000Y48172548D01*
X50601619Y48220167D01*
X50696857Y48267786D01*
X50839714Y48267786D01*
X50934952Y48220167D01*
X50982571Y48172548D01*
X51030190Y48077310D01*
X51030190Y47696358D01*
X50506380Y48553500D02*
X50506380Y49124929D01*
X51506380Y48839215D02*
X50506380Y48839215D01*
X48014000Y46037596D02*
X47966380Y45942358D01*
X47966380Y45799500D01*
X48014000Y45656643D01*
X48109238Y45561405D01*
X48204476Y45513786D01*
X48394952Y45466167D01*
X48537809Y45466167D01*
X48728285Y45513786D01*
X48823523Y45561405D01*
X48918761Y45656643D01*
X48966380Y45799500D01*
X48966380Y45894739D01*
X48918761Y46037596D01*
X48871142Y46085215D01*
X48537809Y46085215D01*
X48537809Y45894739D01*
X48966380Y46513786D02*
X47966380Y46513786D01*
X48966380Y47085215D01*
X47966380Y47085215D01*
X48966380Y47561405D02*
X47966380Y47561405D01*
X47966380Y47799500D01*
X48014000Y47942358D01*
X48109238Y48037596D01*
X48204476Y48085215D01*
X48394952Y48132834D01*
X48537809Y48132834D01*
X48728285Y48085215D01*
X48823523Y48037596D01*
X48918761Y47942358D01*
X48966380Y47799500D01*
X48966380Y47561405D01*
X46045428Y45053358D02*
X46045428Y45815262D01*
X46426380Y45434310D02*
X45664476Y45434310D01*
X45426380Y46767643D02*
X45426380Y46291453D01*
X45902571Y46243834D01*
X45854952Y46291453D01*
X45807333Y46386691D01*
X45807333Y46624786D01*
X45854952Y46720024D01*
X45902571Y46767643D01*
X45997809Y46815262D01*
X46235904Y46815262D01*
X46331142Y46767643D01*
X46378761Y46720024D01*
X46426380Y46624786D01*
X46426380Y46386691D01*
X46378761Y46291453D01*
X46331142Y46243834D01*
X51847857Y2468572D02*
X52609761Y2468572D01*
X52228809Y2087620D02*
X52228809Y2849524D01*
X53562142Y3087620D02*
X53085952Y3087620D01*
X53038333Y2611429D01*
X53085952Y2659048D01*
X53181190Y2706667D01*
X53419285Y2706667D01*
X53514523Y2659048D01*
X53562142Y2611429D01*
X53609761Y2516191D01*
X53609761Y2278096D01*
X53562142Y2182858D01*
X53514523Y2135239D01*
X53419285Y2087620D01*
X53181190Y2087620D01*
X53085952Y2135239D01*
X53038333Y2182858D01*
X49466595Y3087620D02*
X50038023Y3087620D01*
X49752309Y2087620D02*
X49752309Y3087620D01*
X50276119Y3087620D02*
X50942785Y2087620D01*
X50942785Y3087620D02*
X50276119Y2087620D01*
X47521833Y2087620D02*
X47188500Y2563810D01*
X46950404Y2087620D02*
X46950404Y3087620D01*
X47331357Y3087620D01*
X47426595Y3040000D01*
X47474214Y2992381D01*
X47521833Y2897143D01*
X47521833Y2754286D01*
X47474214Y2659048D01*
X47426595Y2611429D01*
X47331357Y2563810D01*
X46950404Y2563810D01*
X47855166Y3087620D02*
X48521833Y2087620D01*
X48521833Y3087620D02*
X47855166Y2087620D01*
X44704047Y2532072D02*
X45465952Y2532072D01*
D11*
%TO.C,C3*%
X40402000Y6115500D02*
X40402000Y3115500D01*
X42402000Y6115500D02*
X40402000Y6115500D01*
X42402000Y3115500D02*
X42402000Y6115500D01*
X40402000Y3115500D02*
X42402000Y3115500D01*
%TO.C,C2*%
X12275000Y6143500D02*
X9275000Y6143500D01*
X12275000Y4143500D02*
X12275000Y6143500D01*
X9275000Y4143500D02*
X12275000Y4143500D01*
X9275000Y6143500D02*
X9275000Y4143500D01*
%TO.C,C1*%
X13986000Y36468500D02*
X13986000Y33468500D01*
X15986000Y36468500D02*
X13986000Y36468500D01*
X15986000Y33468500D02*
X15986000Y36468500D01*
X13986000Y33468500D02*
X15986000Y33468500D01*
%TO.C,SW1*%
X1895000Y36700000D02*
X1895000Y26800000D01*
X8195000Y36750000D02*
X695000Y36750000D01*
X695000Y36750000D02*
X695000Y26750000D01*
X695000Y26750000D02*
X8195000Y26750000D01*
X8195000Y26750000D02*
X8195000Y36750000D01*
%TO.C,R2*%
X22584000Y24612500D02*
X22584000Y23012500D01*
X22584000Y23012500D02*
X26184000Y23012500D01*
X26184000Y23012500D02*
X26184000Y24612500D01*
X26184000Y24612500D02*
X22584000Y24612500D01*
X20574000Y23812500D02*
X22584000Y23812500D01*
X28194000Y23812500D02*
X26184000Y23812500D01*
%TO.C,R1*%
X22584000Y29311500D02*
X22584000Y27711500D01*
X22584000Y27711500D02*
X26184000Y27711500D01*
X26184000Y27711500D02*
X26184000Y29311500D01*
X26184000Y29311500D02*
X22584000Y29311500D01*
X20574000Y28511500D02*
X22584000Y28511500D01*
X28194000Y28511500D02*
X26184000Y28511500D01*
%TO.C,J6*%
X9779000Y15049500D02*
X9779000Y13144500D01*
X9779000Y13144500D02*
X2159000Y13144500D01*
X2159000Y13144500D02*
X2159000Y15684500D01*
X2159000Y15684500D02*
X9144000Y15684500D01*
X9144000Y15684500D02*
X9779000Y15049500D01*
%TO.C,J5*%
X43815000Y4508500D02*
X43815000Y6413500D01*
X43815000Y6413500D02*
X53975000Y6413500D01*
X53975000Y6413500D02*
X53975000Y3873500D01*
X53975000Y3873500D02*
X44450000Y3873500D01*
X44450000Y3873500D02*
X43815000Y4508500D01*
%TO.C,J4*%
X21209000Y42608500D02*
X21209000Y44513500D01*
X21209000Y44513500D02*
X41529000Y44513500D01*
X41529000Y44513500D02*
X41529000Y41973500D01*
X41529000Y41973500D02*
X21844000Y41973500D01*
X21844000Y41973500D02*
X21209000Y42608500D01*
%TO.C,J3*%
X44704000Y42735500D02*
X44704000Y44640500D01*
X44704000Y44640500D02*
X54864000Y44640500D01*
X54864000Y44640500D02*
X54864000Y42100500D01*
X54864000Y42100500D02*
X45339000Y42100500D01*
X45339000Y42100500D02*
X44704000Y42735500D01*
%TO.C,J2*%
X15494000Y4508500D02*
X15494000Y6413500D01*
X15494000Y6413500D02*
X35814000Y6413500D01*
X35814000Y6413500D02*
X35814000Y3873500D01*
X35814000Y3873500D02*
X16129000Y3873500D01*
X16129000Y3873500D02*
X15494000Y4508500D01*
%TO.C,J1*%
X9525000Y45759500D02*
X9525000Y47664500D01*
X9525000Y47664500D02*
X14605000Y47664500D01*
X14605000Y47664500D02*
X14605000Y45124500D01*
X14605000Y45124500D02*
X10160000Y45124500D01*
X10160000Y45124500D02*
X9525000Y45759500D01*
X10475000Y43304500D02*
X10475000Y45124500D01*
X10475000Y43304500D02*
X11115000Y43304500D01*
X11115000Y43304500D02*
X11115000Y45124500D01*
X10475000Y47664500D02*
X10475000Y53664500D01*
X10475000Y53664500D02*
X11115000Y53664500D01*
X11115000Y47664500D02*
X11115000Y53664500D01*
X13015000Y43304500D02*
X13015000Y45124500D01*
X13015000Y43304500D02*
X13655000Y43304500D01*
X13655000Y43304500D02*
X13655000Y45124500D01*
X13015000Y47664500D02*
X13015000Y53664500D01*
X13015000Y53664500D02*
X13655000Y53664500D01*
X13655000Y47664500D02*
X13655000Y53664500D01*
%TO.C,D1*%
X7747000Y22415500D02*
X7747000Y20510500D01*
X7747000Y20510500D02*
X2667000Y20510500D01*
X2667000Y20510500D02*
X2667000Y23050500D01*
X2667000Y23050500D02*
X7112000Y23050500D01*
X7112000Y23050500D02*
X7747000Y22415500D01*
%TD*%
%TO.C,C3*%
D10*
X39822380Y3595762D02*
X39822380Y3024334D01*
X39822380Y3310048D02*
X38822380Y3310048D01*
X38965238Y3214810D01*
X39060476Y3119572D01*
X39108095Y3024334D01*
X39155714Y4452905D02*
X39822380Y4452905D01*
X39155714Y4024334D02*
X39679523Y4024334D01*
X39774761Y4071953D01*
X39822380Y4167191D01*
X39822380Y4310048D01*
X39774761Y4405286D01*
X39727142Y4452905D01*
X39298571Y5262429D02*
X39298571Y4929096D01*
X39822380Y4929096D02*
X38822380Y4929096D01*
X38822380Y5405286D01*
X41235333Y7453358D02*
X41187714Y7405739D01*
X41044857Y7358120D01*
X40949619Y7358120D01*
X40806761Y7405739D01*
X40711523Y7500977D01*
X40663904Y7596215D01*
X40616285Y7786691D01*
X40616285Y7929548D01*
X40663904Y8120024D01*
X40711523Y8215262D01*
X40806761Y8310500D01*
X40949619Y8358120D01*
X41044857Y8358120D01*
X41187714Y8310500D01*
X41235333Y8262881D01*
X41568666Y8358120D02*
X42187714Y8358120D01*
X41854380Y7977167D01*
X41997238Y7977167D01*
X42092476Y7929548D01*
X42140095Y7881929D01*
X42187714Y7786691D01*
X42187714Y7548596D01*
X42140095Y7453358D01*
X42092476Y7405739D01*
X41997238Y7358120D01*
X41711523Y7358120D01*
X41616285Y7405739D01*
X41568666Y7453358D01*
%TO.C,C2*%
X10199761Y6786620D02*
X9628333Y6786620D01*
X9914047Y6786620D02*
X9914047Y7786620D01*
X9818809Y7643762D01*
X9723571Y7548524D01*
X9628333Y7500905D01*
X11056904Y7453286D02*
X11056904Y6786620D01*
X10628333Y7453286D02*
X10628333Y6929477D01*
X10675952Y6834239D01*
X10771190Y6786620D01*
X10914047Y6786620D01*
X11009285Y6834239D01*
X11056904Y6881858D01*
X11866428Y7310429D02*
X11533095Y7310429D01*
X11533095Y6786620D02*
X11533095Y7786620D01*
X12009285Y7786620D01*
X7199333Y4595858D02*
X7151714Y4548239D01*
X7008857Y4500620D01*
X6913619Y4500620D01*
X6770761Y4548239D01*
X6675523Y4643477D01*
X6627904Y4738715D01*
X6580285Y4929191D01*
X6580285Y5072048D01*
X6627904Y5262524D01*
X6675523Y5357762D01*
X6770761Y5453000D01*
X6913619Y5500620D01*
X7008857Y5500620D01*
X7151714Y5453000D01*
X7199333Y5405381D01*
X7580285Y5405381D02*
X7627904Y5453000D01*
X7723142Y5500620D01*
X7961238Y5500620D01*
X8056476Y5453000D01*
X8104095Y5405381D01*
X8151714Y5310143D01*
X8151714Y5214905D01*
X8104095Y5072048D01*
X7532666Y4500620D01*
X8151714Y4500620D01*
%TO.C,C1*%
X13469880Y34139262D02*
X13469880Y33567834D01*
X13469880Y33853548D02*
X12469880Y33853548D01*
X12612738Y33758310D01*
X12707976Y33663072D01*
X12755595Y33567834D01*
X12803214Y34996405D02*
X13469880Y34996405D01*
X12803214Y34567834D02*
X13327023Y34567834D01*
X13422261Y34615453D01*
X13469880Y34710691D01*
X13469880Y34853548D01*
X13422261Y34948786D01*
X13374642Y34996405D01*
X12946071Y35805929D02*
X12946071Y35472596D01*
X13469880Y35472596D02*
X12469880Y35472596D01*
X12469880Y35948786D01*
X15406642Y31329334D02*
X15454261Y31281715D01*
X15501880Y31138858D01*
X15501880Y31043620D01*
X15454261Y30900762D01*
X15359023Y30805524D01*
X15263785Y30757905D01*
X15073309Y30710286D01*
X14930452Y30710286D01*
X14739976Y30757905D01*
X14644738Y30805524D01*
X14549500Y30900762D01*
X14501880Y31043620D01*
X14501880Y31138858D01*
X14549500Y31281715D01*
X14597119Y31329334D01*
X15501880Y32281715D02*
X15501880Y31710286D01*
X15501880Y31996000D02*
X14501880Y31996000D01*
X14644738Y31900762D01*
X14739976Y31805524D01*
X14787595Y31710286D01*
%TO.C,MH3*%
X57975666Y42410120D02*
X57975666Y43410120D01*
X58309000Y42695834D01*
X58642333Y43410120D01*
X58642333Y42410120D01*
X59118523Y42410120D02*
X59118523Y43410120D01*
X59118523Y42933929D02*
X59689952Y42933929D01*
X59689952Y42410120D02*
X59689952Y43410120D01*
X60070904Y43410120D02*
X60689952Y43410120D01*
X60356619Y43029167D01*
X60499476Y43029167D01*
X60594714Y42981548D01*
X60642333Y42933929D01*
X60689952Y42838691D01*
X60689952Y42600596D01*
X60642333Y42505358D01*
X60594714Y42457739D01*
X60499476Y42410120D01*
X60213761Y42410120D01*
X60118523Y42457739D01*
X60070904Y42505358D01*
X57975666Y42410120D02*
X57975666Y43410120D01*
X58309000Y42695834D01*
X58642333Y43410120D01*
X58642333Y42410120D01*
X59118523Y42410120D02*
X59118523Y43410120D01*
X59118523Y42933929D02*
X59689952Y42933929D01*
X59689952Y42410120D02*
X59689952Y43410120D01*
X60070904Y43410120D02*
X60689952Y43410120D01*
X60356619Y43029167D01*
X60499476Y43029167D01*
X60594714Y42981548D01*
X60642333Y42933929D01*
X60689952Y42838691D01*
X60689952Y42600596D01*
X60642333Y42505358D01*
X60594714Y42457739D01*
X60499476Y42410120D01*
X60213761Y42410120D01*
X60118523Y42457739D01*
X60070904Y42505358D01*
%TO.C,MH4*%
X2095666Y42339120D02*
X2095666Y43339120D01*
X2429000Y42624834D01*
X2762333Y43339120D01*
X2762333Y42339120D01*
X3238523Y42339120D02*
X3238523Y43339120D01*
X3238523Y42862929D02*
X3809952Y42862929D01*
X3809952Y42339120D02*
X3809952Y43339120D01*
X4714714Y43005786D02*
X4714714Y42339120D01*
X4476619Y43386739D02*
X4238523Y42672453D01*
X4857571Y42672453D01*
X2095666Y42283120D02*
X2095666Y43283120D01*
X2429000Y42568834D01*
X2762333Y43283120D01*
X2762333Y42283120D01*
X3238523Y42283120D02*
X3238523Y43283120D01*
X3238523Y42806929D02*
X3809952Y42806929D01*
X3809952Y42283120D02*
X3809952Y43283120D01*
X4714714Y42949786D02*
X4714714Y42283120D01*
X4476619Y43330739D02*
X4238523Y42616453D01*
X4857571Y42616453D01*
%TO.C,MH2*%
X57975666Y6723120D02*
X57975666Y7723120D01*
X58309000Y7008834D01*
X58642333Y7723120D01*
X58642333Y6723120D01*
X59118523Y6723120D02*
X59118523Y7723120D01*
X59118523Y7246929D02*
X59689952Y7246929D01*
X59689952Y6723120D02*
X59689952Y7723120D01*
X60118523Y7627881D02*
X60166142Y7675500D01*
X60261380Y7723120D01*
X60499476Y7723120D01*
X60594714Y7675500D01*
X60642333Y7627881D01*
X60689952Y7532643D01*
X60689952Y7437405D01*
X60642333Y7294548D01*
X60070904Y6723120D01*
X60689952Y6723120D01*
X57975666Y6723120D02*
X57975666Y7723120D01*
X58309000Y7008834D01*
X58642333Y7723120D01*
X58642333Y6723120D01*
X59118523Y6723120D02*
X59118523Y7723120D01*
X59118523Y7246929D02*
X59689952Y7246929D01*
X59689952Y6723120D02*
X59689952Y7723120D01*
X60118523Y7627881D02*
X60166142Y7675500D01*
X60261380Y7723120D01*
X60499476Y7723120D01*
X60594714Y7675500D01*
X60642333Y7627881D01*
X60689952Y7532643D01*
X60689952Y7437405D01*
X60642333Y7294548D01*
X60070904Y6723120D01*
X60689952Y6723120D01*
%TO.C,MH1*%
X1841666Y6659620D02*
X1841666Y7659620D01*
X2175000Y6945334D01*
X2508333Y7659620D01*
X2508333Y6659620D01*
X2984523Y6659620D02*
X2984523Y7659620D01*
X2984523Y7183429D02*
X3555952Y7183429D01*
X3555952Y6659620D02*
X3555952Y7659620D01*
X4555952Y6659620D02*
X3984523Y6659620D01*
X4270238Y6659620D02*
X4270238Y7659620D01*
X4175000Y7516762D01*
X4079761Y7421524D01*
X3984523Y7373905D01*
X1841666Y6596120D02*
X1841666Y7596120D01*
X2175000Y6881834D01*
X2508333Y7596120D01*
X2508333Y6596120D01*
X2984523Y6596120D02*
X2984523Y7596120D01*
X2984523Y7119929D02*
X3555952Y7119929D01*
X3555952Y6596120D02*
X3555952Y7596120D01*
X4555952Y6596120D02*
X3984523Y6596120D01*
X4270238Y6596120D02*
X4270238Y7596120D01*
X4175000Y7453262D01*
X4079761Y7358024D01*
X3984523Y7310405D01*
%TO.C,U1*%
X59174071Y23448048D02*
X59174071Y23781381D01*
X59697880Y23924239D02*
X59697880Y23448048D01*
X58697880Y23448048D01*
X58697880Y23924239D01*
X59650261Y24305191D02*
X59697880Y24448048D01*
X59697880Y24686143D01*
X59650261Y24781381D01*
X59602642Y24829000D01*
X59507404Y24876620D01*
X59412166Y24876620D01*
X59316928Y24829000D01*
X59269309Y24781381D01*
X59221690Y24686143D01*
X59174071Y24495667D01*
X59126452Y24400429D01*
X59078833Y24352810D01*
X58983595Y24305191D01*
X58888357Y24305191D01*
X58793119Y24352810D01*
X58745500Y24400429D01*
X58697880Y24495667D01*
X58697880Y24733762D01*
X58745500Y24876620D01*
X59697880Y25305191D02*
X58697880Y25305191D01*
X58697880Y25686143D01*
X58745500Y25781381D01*
X58793119Y25829000D01*
X58888357Y25876620D01*
X59031214Y25876620D01*
X59126452Y25829000D01*
X59174071Y25781381D01*
X59221690Y25686143D01*
X59221690Y25305191D01*
X58697880Y26209953D02*
X58697880Y26829000D01*
X59078833Y26495667D01*
X59078833Y26638524D01*
X59126452Y26733762D01*
X59174071Y26781381D01*
X59269309Y26829000D01*
X59507404Y26829000D01*
X59602642Y26781381D01*
X59650261Y26733762D01*
X59697880Y26638524D01*
X59697880Y26352810D01*
X59650261Y26257572D01*
X59602642Y26209953D01*
X58793119Y27209953D02*
X58745500Y27257572D01*
X58697880Y27352810D01*
X58697880Y27590905D01*
X58745500Y27686143D01*
X58793119Y27733762D01*
X58888357Y27781381D01*
X58983595Y27781381D01*
X59126452Y27733762D01*
X59697880Y27162334D01*
X59697880Y27781381D01*
X59697880Y28209953D02*
X58697880Y28209953D01*
X58697880Y28448048D01*
X58745500Y28590905D01*
X58840738Y28686143D01*
X58935976Y28733762D01*
X59126452Y28781381D01*
X59269309Y28781381D01*
X59459785Y28733762D01*
X59555023Y28686143D01*
X59650261Y28590905D01*
X59697880Y28448048D01*
X59697880Y28209953D01*
X59650261Y29590905D02*
X59697880Y29495667D01*
X59697880Y29305191D01*
X59650261Y29209953D01*
X59555023Y29162334D01*
X59174071Y29162334D01*
X59078833Y29209953D01*
X59031214Y29305191D01*
X59031214Y29495667D01*
X59078833Y29590905D01*
X59174071Y29638524D01*
X59269309Y29638524D01*
X59364547Y29162334D01*
X59031214Y29971858D02*
X59697880Y30209953D01*
X59031214Y30448048D01*
X59697880Y30829000D02*
X58697880Y30829000D01*
X59697880Y31400429D02*
X59126452Y30971858D01*
X58697880Y31400429D02*
X59269309Y30829000D01*
X59697880Y31829000D02*
X59031214Y31829000D01*
X58697880Y31829000D02*
X58745500Y31781381D01*
X58793119Y31829000D01*
X58745500Y31876620D01*
X58697880Y31829000D01*
X58793119Y31829000D01*
X59031214Y32162334D02*
X59031214Y32543286D01*
X58697880Y32305191D02*
X59555023Y32305191D01*
X59650261Y32352810D01*
X59697880Y32448048D01*
X59697880Y32543286D01*
X58697880Y32733762D02*
X59697880Y33067096D01*
X58697880Y33400429D01*
X59697880Y34257572D02*
X59697880Y33686143D01*
X59697880Y33971858D02*
X58697880Y33971858D01*
X58840738Y33876620D01*
X58935976Y33781381D01*
X58983595Y33686143D01*
%TO.C,SW1*%
X10183761Y27511929D02*
X10231380Y27654786D01*
X10231380Y27892881D01*
X10183761Y27988120D01*
X10136142Y28035739D01*
X10040904Y28083358D01*
X9945666Y28083358D01*
X9850428Y28035739D01*
X9802809Y27988120D01*
X9755190Y27892881D01*
X9707571Y27702405D01*
X9659952Y27607167D01*
X9612333Y27559548D01*
X9517095Y27511929D01*
X9421857Y27511929D01*
X9326619Y27559548D01*
X9279000Y27607167D01*
X9231380Y27702405D01*
X9231380Y27940500D01*
X9279000Y28083358D01*
X9564714Y28369072D02*
X9564714Y28750024D01*
X9231380Y28511929D02*
X10088523Y28511929D01*
X10183761Y28559548D01*
X10231380Y28654786D01*
X10231380Y28750024D01*
X10231380Y29511929D02*
X9707571Y29511929D01*
X9612333Y29464310D01*
X9564714Y29369072D01*
X9564714Y29178596D01*
X9612333Y29083358D01*
X10183761Y29511929D02*
X10231380Y29416691D01*
X10231380Y29178596D01*
X10183761Y29083358D01*
X10088523Y29035739D01*
X9993285Y29035739D01*
X9898047Y29083358D01*
X9850428Y29178596D01*
X9850428Y29416691D01*
X9802809Y29511929D01*
X10231380Y29988120D02*
X9564714Y29988120D01*
X9755190Y29988120D02*
X9659952Y30035739D01*
X9612333Y30083358D01*
X9564714Y30178596D01*
X9564714Y30273834D01*
X9564714Y30464310D02*
X9564714Y30845262D01*
X9231380Y30607167D02*
X10088523Y30607167D01*
X10183761Y30654786D01*
X10231380Y30750024D01*
X10231380Y30845262D01*
X10326619Y30940500D02*
X10326619Y31702405D01*
X9707571Y32273834D02*
X9755190Y32416691D01*
X9802809Y32464310D01*
X9898047Y32511929D01*
X10040904Y32511929D01*
X10136142Y32464310D01*
X10183761Y32416691D01*
X10231380Y32321453D01*
X10231380Y31940500D01*
X9231380Y31940500D01*
X9231380Y32273834D01*
X9279000Y32369072D01*
X9326619Y32416691D01*
X9421857Y32464310D01*
X9517095Y32464310D01*
X9612333Y32416691D01*
X9659952Y32369072D01*
X9707571Y32273834D01*
X9707571Y31940500D01*
X9564714Y33369072D02*
X10231380Y33369072D01*
X9564714Y32940500D02*
X10088523Y32940500D01*
X10183761Y32988120D01*
X10231380Y33083358D01*
X10231380Y33226215D01*
X10183761Y33321453D01*
X10136142Y33369072D01*
X9564714Y33702405D02*
X9564714Y34083358D01*
X9231380Y33845262D02*
X10088523Y33845262D01*
X10183761Y33892881D01*
X10231380Y33988120D01*
X10231380Y34083358D01*
X9564714Y34273834D02*
X9564714Y34654786D01*
X9231380Y34416691D02*
X10088523Y34416691D01*
X10183761Y34464310D01*
X10231380Y34559548D01*
X10231380Y34654786D01*
X10231380Y35130977D02*
X10183761Y35035739D01*
X10136142Y34988120D01*
X10040904Y34940500D01*
X9755190Y34940500D01*
X9659952Y34988120D01*
X9612333Y35035739D01*
X9564714Y35130977D01*
X9564714Y35273834D01*
X9612333Y35369072D01*
X9659952Y35416691D01*
X9755190Y35464310D01*
X10040904Y35464310D01*
X10136142Y35416691D01*
X10183761Y35369072D01*
X10231380Y35273834D01*
X10231380Y35130977D01*
X9564714Y35892881D02*
X10231380Y35892881D01*
X9659952Y35892881D02*
X9612333Y35940500D01*
X9564714Y36035739D01*
X9564714Y36178596D01*
X9612333Y36273834D01*
X9707571Y36321453D01*
X10231380Y36321453D01*
X3175166Y37441239D02*
X3318023Y37393620D01*
X3556119Y37393620D01*
X3651357Y37441239D01*
X3698976Y37488858D01*
X3746595Y37584096D01*
X3746595Y37679334D01*
X3698976Y37774572D01*
X3651357Y37822191D01*
X3556119Y37869810D01*
X3365642Y37917429D01*
X3270404Y37965048D01*
X3222785Y38012667D01*
X3175166Y38107905D01*
X3175166Y38203143D01*
X3222785Y38298381D01*
X3270404Y38346000D01*
X3365642Y38393620D01*
X3603738Y38393620D01*
X3746595Y38346000D01*
X4079928Y38393620D02*
X4318023Y37393620D01*
X4508500Y38107905D01*
X4698976Y37393620D01*
X4937071Y38393620D01*
X5841833Y37393620D02*
X5270404Y37393620D01*
X5556119Y37393620D02*
X5556119Y38393620D01*
X5460880Y38250762D01*
X5365642Y38155524D01*
X5270404Y38107905D01*
%TO.C,R2*%
X23098285Y26138120D02*
X23717333Y26138120D01*
X23384000Y25757167D01*
X23526857Y25757167D01*
X23622095Y25709548D01*
X23669714Y25661929D01*
X23717333Y25566691D01*
X23717333Y25328596D01*
X23669714Y25233358D01*
X23622095Y25185739D01*
X23526857Y25138120D01*
X23241142Y25138120D01*
X23145904Y25185739D01*
X23098285Y25233358D01*
X24050666Y26138120D02*
X24669714Y26138120D01*
X24336380Y25757167D01*
X24479238Y25757167D01*
X24574476Y25709548D01*
X24622095Y25661929D01*
X24669714Y25566691D01*
X24669714Y25328596D01*
X24622095Y25233358D01*
X24574476Y25185739D01*
X24479238Y25138120D01*
X24193523Y25138120D01*
X24098285Y25185739D01*
X24050666Y25233358D01*
X25288761Y26138120D02*
X25384000Y26138120D01*
X25479238Y26090500D01*
X25526857Y26042881D01*
X25574476Y25947643D01*
X25622095Y25757167D01*
X25622095Y25519072D01*
X25574476Y25328596D01*
X25526857Y25233358D01*
X25479238Y25185739D01*
X25384000Y25138120D01*
X25288761Y25138120D01*
X25193523Y25185739D01*
X25145904Y25233358D01*
X25098285Y25328596D01*
X25050666Y25519072D01*
X25050666Y25757167D01*
X25098285Y25947643D01*
X25145904Y26042881D01*
X25193523Y26090500D01*
X25288761Y26138120D01*
D12*
X24391000Y23486786D02*
X24151000Y23829643D01*
X23979571Y23486786D02*
X23979571Y24206786D01*
X24253857Y24206786D01*
X24322428Y24172500D01*
X24356714Y24138215D01*
X24391000Y24069643D01*
X24391000Y23966786D01*
X24356714Y23898215D01*
X24322428Y23863929D01*
X24253857Y23829643D01*
X23979571Y23829643D01*
X24665285Y24138215D02*
X24699571Y24172500D01*
X24768142Y24206786D01*
X24939571Y24206786D01*
X25008142Y24172500D01*
X25042428Y24138215D01*
X25076714Y24069643D01*
X25076714Y24001072D01*
X25042428Y23898215D01*
X24631000Y23486786D01*
X25076714Y23486786D01*
%TO.C,R1*%
D10*
X24264952Y29964120D02*
X23693523Y29964120D01*
X23979238Y29964120D02*
X23979238Y30964120D01*
X23884000Y30821262D01*
X23788761Y30726024D01*
X23693523Y30678405D01*
X24693523Y29964120D02*
X24693523Y30964120D01*
X24788761Y30345072D02*
X25074476Y29964120D01*
X25074476Y30630786D02*
X24693523Y30249834D01*
D12*
X24264000Y28185786D02*
X24024000Y28528643D01*
X23852571Y28185786D02*
X23852571Y28905786D01*
X24126857Y28905786D01*
X24195428Y28871500D01*
X24229714Y28837215D01*
X24264000Y28768643D01*
X24264000Y28665786D01*
X24229714Y28597215D01*
X24195428Y28562929D01*
X24126857Y28528643D01*
X23852571Y28528643D01*
X24949714Y28185786D02*
X24538285Y28185786D01*
X24744000Y28185786D02*
X24744000Y28905786D01*
X24675428Y28802929D01*
X24606857Y28734358D01*
X24538285Y28700072D01*
%TO.C,J6*%
D10*
X2516619Y16502120D02*
X2516619Y17502120D01*
X2897571Y17502120D01*
X2992809Y17454500D01*
X3040428Y17406881D01*
X3088047Y17311643D01*
X3088047Y17168786D01*
X3040428Y17073548D01*
X2992809Y17025929D01*
X2897571Y16978310D01*
X2516619Y16978310D01*
X3373761Y17502120D02*
X3945190Y17502120D01*
X3659476Y16502120D02*
X3659476Y17502120D01*
X4469000Y17502120D02*
X4659476Y17502120D01*
X4754714Y17454500D01*
X4849952Y17359262D01*
X4897571Y17168786D01*
X4897571Y16835453D01*
X4849952Y16644977D01*
X4754714Y16549739D01*
X4659476Y16502120D01*
X4469000Y16502120D01*
X4373761Y16549739D01*
X4278523Y16644977D01*
X4230904Y16835453D01*
X4230904Y17168786D01*
X4278523Y17359262D01*
X4373761Y17454500D01*
X4469000Y17502120D01*
X6088047Y17025929D02*
X6421380Y17025929D01*
X6564238Y16502120D02*
X6088047Y16502120D01*
X6088047Y17502120D01*
X6564238Y17502120D01*
X6897571Y16502120D02*
X7421380Y17168786D01*
X6897571Y17168786D02*
X7421380Y16502120D01*
X7659476Y17168786D02*
X8040428Y17168786D01*
X7802333Y17502120D02*
X7802333Y16644977D01*
X7849952Y16549739D01*
X7945190Y16502120D01*
X8040428Y16502120D01*
X8373761Y16502120D02*
X8373761Y17168786D01*
X8373761Y16978310D02*
X8421380Y17073548D01*
X8469000Y17121167D01*
X8564238Y17168786D01*
X8659476Y17168786D01*
X9421380Y16502120D02*
X9421380Y17025929D01*
X9373761Y17121167D01*
X9278523Y17168786D01*
X9088047Y17168786D01*
X8992809Y17121167D01*
X9421380Y16549739D02*
X9326142Y16502120D01*
X9088047Y16502120D01*
X8992809Y16549739D01*
X8945190Y16644977D01*
X8945190Y16740215D01*
X8992809Y16835453D01*
X9088047Y16883072D01*
X9326142Y16883072D01*
X9421380Y16930691D01*
X10310880Y14081167D02*
X11025166Y14081167D01*
X11168023Y14033548D01*
X11263261Y13938310D01*
X11310880Y13795453D01*
X11310880Y13700215D01*
X10310880Y14985929D02*
X10310880Y14795453D01*
X10358500Y14700215D01*
X10406119Y14652596D01*
X10548976Y14557358D01*
X10739452Y14509739D01*
X11120404Y14509739D01*
X11215642Y14557358D01*
X11263261Y14604977D01*
X11310880Y14700215D01*
X11310880Y14890691D01*
X11263261Y14985929D01*
X11215642Y15033548D01*
X11120404Y15081167D01*
X10882309Y15081167D01*
X10787071Y15033548D01*
X10739452Y14985929D01*
X10691833Y14890691D01*
X10691833Y14700215D01*
X10739452Y14604977D01*
X10787071Y14557358D01*
X10882309Y14509739D01*
%TO.C,J5*%
X47363261Y7231120D02*
X47029928Y7707310D01*
X46791833Y7231120D02*
X46791833Y8231120D01*
X47172785Y8231120D01*
X47268023Y8183500D01*
X47315642Y8135881D01*
X47363261Y8040643D01*
X47363261Y7897786D01*
X47315642Y7802548D01*
X47268023Y7754929D01*
X47172785Y7707310D01*
X46791833Y7707310D01*
X47744214Y7278739D02*
X47887071Y7231120D01*
X48125166Y7231120D01*
X48220404Y7278739D01*
X48268023Y7326358D01*
X48315642Y7421596D01*
X48315642Y7516834D01*
X48268023Y7612072D01*
X48220404Y7659691D01*
X48125166Y7707310D01*
X47934690Y7754929D01*
X47839452Y7802548D01*
X47791833Y7850167D01*
X47744214Y7945405D01*
X47744214Y8040643D01*
X47791833Y8135881D01*
X47839452Y8183500D01*
X47934690Y8231120D01*
X48172785Y8231120D01*
X48315642Y8183500D01*
X48696595Y8135881D02*
X48744214Y8183500D01*
X48839452Y8231120D01*
X49077547Y8231120D01*
X49172785Y8183500D01*
X49220404Y8135881D01*
X49268023Y8040643D01*
X49268023Y7945405D01*
X49220404Y7802548D01*
X48648976Y7231120D01*
X49268023Y7231120D01*
X49601357Y8231120D02*
X50220404Y8231120D01*
X49887071Y7850167D01*
X50029928Y7850167D01*
X50125166Y7802548D01*
X50172785Y7754929D01*
X50220404Y7659691D01*
X50220404Y7421596D01*
X50172785Y7326358D01*
X50125166Y7278739D01*
X50029928Y7231120D01*
X49744214Y7231120D01*
X49648976Y7278739D01*
X49601357Y7326358D01*
X50601357Y8135881D02*
X50648976Y8183500D01*
X50744214Y8231120D01*
X50982309Y8231120D01*
X51077547Y8183500D01*
X51125166Y8135881D01*
X51172785Y8040643D01*
X51172785Y7945405D01*
X51125166Y7802548D01*
X50553738Y7231120D01*
X51172785Y7231120D01*
X53070166Y8167620D02*
X53070166Y7453334D01*
X53022547Y7310477D01*
X52927309Y7215239D01*
X52784452Y7167620D01*
X52689214Y7167620D01*
X54022547Y8167620D02*
X53546357Y8167620D01*
X53498738Y7691429D01*
X53546357Y7739048D01*
X53641595Y7786667D01*
X53879690Y7786667D01*
X53974928Y7739048D01*
X54022547Y7691429D01*
X54070166Y7596191D01*
X54070166Y7358096D01*
X54022547Y7262858D01*
X53974928Y7215239D01*
X53879690Y7167620D01*
X53641595Y7167620D01*
X53546357Y7215239D01*
X53498738Y7262858D01*
%TO.C,J4*%
X28892809Y45140620D02*
X28892809Y46140620D01*
X29464238Y45140620D02*
X29035666Y45712048D01*
X29464238Y46140620D02*
X28892809Y45569191D01*
X30273761Y45188239D02*
X30178523Y45140620D01*
X29988047Y45140620D01*
X29892809Y45188239D01*
X29845190Y45283477D01*
X29845190Y45664429D01*
X29892809Y45759667D01*
X29988047Y45807286D01*
X30178523Y45807286D01*
X30273761Y45759667D01*
X30321380Y45664429D01*
X30321380Y45569191D01*
X29845190Y45473953D01*
X30654714Y45807286D02*
X30892809Y45140620D01*
X31130904Y45807286D02*
X30892809Y45140620D01*
X30797571Y44902524D01*
X30749952Y44854905D01*
X30654714Y44807286D01*
X31511857Y45140620D02*
X31511857Y46140620D01*
X31892809Y46140620D01*
X31988047Y46093000D01*
X32035666Y46045381D01*
X32083285Y45950143D01*
X32083285Y45807286D01*
X32035666Y45712048D01*
X31988047Y45664429D01*
X31892809Y45616810D01*
X31511857Y45616810D01*
X32940428Y45140620D02*
X32940428Y45664429D01*
X32892809Y45759667D01*
X32797571Y45807286D01*
X32607095Y45807286D01*
X32511857Y45759667D01*
X32940428Y45188239D02*
X32845190Y45140620D01*
X32607095Y45140620D01*
X32511857Y45188239D01*
X32464238Y45283477D01*
X32464238Y45378715D01*
X32511857Y45473953D01*
X32607095Y45521572D01*
X32845190Y45521572D01*
X32940428Y45569191D01*
X33845190Y45140620D02*
X33845190Y46140620D01*
X33845190Y45188239D02*
X33749952Y45140620D01*
X33559476Y45140620D01*
X33464238Y45188239D01*
X33416619Y45235858D01*
X33369000Y45331096D01*
X33369000Y45616810D01*
X33416619Y45712048D01*
X33464238Y45759667D01*
X33559476Y45807286D01*
X33749952Y45807286D01*
X33845190Y45759667D01*
X19478666Y43791120D02*
X19478666Y43076834D01*
X19431047Y42933977D01*
X19335809Y42838739D01*
X19192952Y42791120D01*
X19097714Y42791120D01*
X20383428Y43457786D02*
X20383428Y42791120D01*
X20145333Y43838739D02*
X19907238Y43124453D01*
X20526285Y43124453D01*
%TO.C,J3*%
X43887190Y40235239D02*
X44030047Y40187620D01*
X44268142Y40187620D01*
X44363380Y40235239D01*
X44411000Y40282858D01*
X44458619Y40378096D01*
X44458619Y40473334D01*
X44411000Y40568572D01*
X44363380Y40616191D01*
X44268142Y40663810D01*
X44077666Y40711429D01*
X43982428Y40759048D01*
X43934809Y40806667D01*
X43887190Y40901905D01*
X43887190Y40997143D01*
X43934809Y41092381D01*
X43982428Y41140000D01*
X44077666Y41187620D01*
X44315761Y41187620D01*
X44458619Y41140000D01*
X45030047Y40187620D02*
X44934809Y40235239D01*
X44887190Y40282858D01*
X44839571Y40378096D01*
X44839571Y40663810D01*
X44887190Y40759048D01*
X44934809Y40806667D01*
X45030047Y40854286D01*
X45172904Y40854286D01*
X45268142Y40806667D01*
X45315761Y40759048D01*
X45363380Y40663810D01*
X45363380Y40378096D01*
X45315761Y40282858D01*
X45268142Y40235239D01*
X45172904Y40187620D01*
X45030047Y40187620D01*
X45934809Y40187620D02*
X45839571Y40235239D01*
X45791952Y40330477D01*
X45791952Y41187620D01*
X46315761Y40187620D02*
X46315761Y40854286D01*
X46315761Y41187620D02*
X46268142Y41140000D01*
X46315761Y41092381D01*
X46363380Y41140000D01*
X46315761Y41187620D01*
X46315761Y41092381D01*
X47220523Y40187620D02*
X47220523Y41187620D01*
X47220523Y40235239D02*
X47125285Y40187620D01*
X46934809Y40187620D01*
X46839571Y40235239D01*
X46791952Y40282858D01*
X46744333Y40378096D01*
X46744333Y40663810D01*
X46791952Y40759048D01*
X46839571Y40806667D01*
X46934809Y40854286D01*
X47125285Y40854286D01*
X47220523Y40806667D01*
X47649095Y40235239D02*
X47791952Y40187620D01*
X48030047Y40187620D01*
X48125285Y40235239D01*
X48172904Y40282858D01*
X48220523Y40378096D01*
X48220523Y40473334D01*
X48172904Y40568572D01*
X48125285Y40616191D01*
X48030047Y40663810D01*
X47839571Y40711429D01*
X47744333Y40759048D01*
X47696714Y40806667D01*
X47649095Y40901905D01*
X47649095Y40997143D01*
X47696714Y41092381D01*
X47744333Y41140000D01*
X47839571Y41187620D01*
X48077666Y41187620D01*
X48220523Y41140000D01*
X48506238Y40854286D02*
X48887190Y40854286D01*
X48649095Y41187620D02*
X48649095Y40330477D01*
X48696714Y40235239D01*
X48791952Y40187620D01*
X48887190Y40187620D01*
X49649095Y40187620D02*
X49649095Y40711429D01*
X49601476Y40806667D01*
X49506238Y40854286D01*
X49315761Y40854286D01*
X49220523Y40806667D01*
X49649095Y40235239D02*
X49553857Y40187620D01*
X49315761Y40187620D01*
X49220523Y40235239D01*
X49172904Y40330477D01*
X49172904Y40425715D01*
X49220523Y40520953D01*
X49315761Y40568572D01*
X49553857Y40568572D01*
X49649095Y40616191D01*
X49982428Y40854286D02*
X50363380Y40854286D01*
X50125285Y41187620D02*
X50125285Y40330477D01*
X50172904Y40235239D01*
X50268142Y40187620D01*
X50363380Y40187620D01*
X51077666Y40235239D02*
X50982428Y40187620D01*
X50791952Y40187620D01*
X50696714Y40235239D01*
X50649095Y40330477D01*
X50649095Y40711429D01*
X50696714Y40806667D01*
X50791952Y40854286D01*
X50982428Y40854286D01*
X51077666Y40806667D01*
X51125285Y40711429D01*
X51125285Y40616191D01*
X50649095Y40520953D01*
X52887190Y40187620D02*
X52553857Y40663810D01*
X52315761Y40187620D02*
X52315761Y41187620D01*
X52696714Y41187620D01*
X52791952Y41140000D01*
X52839571Y41092381D01*
X52887190Y40997143D01*
X52887190Y40854286D01*
X52839571Y40759048D01*
X52791952Y40711429D01*
X52696714Y40663810D01*
X52315761Y40663810D01*
X53696714Y40235239D02*
X53601476Y40187620D01*
X53411000Y40187620D01*
X53315761Y40235239D01*
X53268142Y40330477D01*
X53268142Y40711429D01*
X53315761Y40806667D01*
X53411000Y40854286D01*
X53601476Y40854286D01*
X53696714Y40806667D01*
X53744333Y40711429D01*
X53744333Y40616191D01*
X53268142Y40520953D01*
X54315761Y40187620D02*
X54220523Y40235239D01*
X54172904Y40330477D01*
X54172904Y41187620D01*
X55125285Y40187620D02*
X55125285Y40711429D01*
X55077666Y40806667D01*
X54982428Y40854286D01*
X54791952Y40854286D01*
X54696714Y40806667D01*
X55125285Y40235239D02*
X55030047Y40187620D01*
X54791952Y40187620D01*
X54696714Y40235239D01*
X54649095Y40330477D01*
X54649095Y40425715D01*
X54696714Y40520953D01*
X54791952Y40568572D01*
X55030047Y40568572D01*
X55125285Y40616191D01*
X55506238Y40854286D02*
X55744333Y40187620D01*
X55982428Y40854286D02*
X55744333Y40187620D01*
X55649095Y39949524D01*
X55601476Y39901905D01*
X55506238Y39854286D01*
X43076880Y43037167D02*
X43791166Y43037167D01*
X43934023Y42989548D01*
X44029261Y42894310D01*
X44076880Y42751453D01*
X44076880Y42656215D01*
X43076880Y43418120D02*
X43076880Y44037167D01*
X43457833Y43703834D01*
X43457833Y43846691D01*
X43505452Y43941929D01*
X43553071Y43989548D01*
X43648309Y44037167D01*
X43886404Y44037167D01*
X43981642Y43989548D01*
X44029261Y43941929D01*
X44076880Y43846691D01*
X44076880Y43560977D01*
X44029261Y43465739D01*
X43981642Y43418120D01*
%TO.C,J2*%
X24963523Y6977120D02*
X24487333Y6977120D01*
X24487333Y7977120D01*
X25868285Y7072358D02*
X25820666Y7024739D01*
X25677809Y6977120D01*
X25582571Y6977120D01*
X25439714Y7024739D01*
X25344476Y7119977D01*
X25296857Y7215215D01*
X25249238Y7405691D01*
X25249238Y7548548D01*
X25296857Y7739024D01*
X25344476Y7834262D01*
X25439714Y7929500D01*
X25582571Y7977120D01*
X25677809Y7977120D01*
X25820666Y7929500D01*
X25868285Y7881881D01*
X26296857Y6977120D02*
X26296857Y7977120D01*
X26534952Y7977120D01*
X26677809Y7929500D01*
X26773047Y7834262D01*
X26820666Y7739024D01*
X26868285Y7548548D01*
X26868285Y7405691D01*
X26820666Y7215215D01*
X26773047Y7119977D01*
X26677809Y7024739D01*
X26534952Y6977120D01*
X26296857Y6977120D01*
X13803380Y4810167D02*
X14517666Y4810167D01*
X14660523Y4762548D01*
X14755761Y4667310D01*
X14803380Y4524453D01*
X14803380Y4429215D01*
X13898619Y5238739D02*
X13851000Y5286358D01*
X13803380Y5381596D01*
X13803380Y5619691D01*
X13851000Y5714929D01*
X13898619Y5762548D01*
X13993857Y5810167D01*
X14089095Y5810167D01*
X14231952Y5762548D01*
X14803380Y5191120D01*
X14803380Y5810167D01*
%TO.C,J1*%
X9120571Y41822620D02*
X9120571Y41013096D01*
X9168190Y40917858D01*
X9215809Y40870239D01*
X9311047Y40822620D01*
X9501523Y40822620D01*
X9596761Y40870239D01*
X9644380Y40917858D01*
X9692000Y41013096D01*
X9692000Y41822620D01*
X10120571Y40870239D02*
X10263428Y40822620D01*
X10501523Y40822620D01*
X10596761Y40870239D01*
X10644380Y40917858D01*
X10692000Y41013096D01*
X10692000Y41108334D01*
X10644380Y41203572D01*
X10596761Y41251191D01*
X10501523Y41298810D01*
X10311047Y41346429D01*
X10215809Y41394048D01*
X10168190Y41441667D01*
X10120571Y41536905D01*
X10120571Y41632143D01*
X10168190Y41727381D01*
X10215809Y41775000D01*
X10311047Y41822620D01*
X10549142Y41822620D01*
X10692000Y41775000D01*
X11453904Y41346429D02*
X11596761Y41298810D01*
X11644380Y41251191D01*
X11692000Y41155953D01*
X11692000Y41013096D01*
X11644380Y40917858D01*
X11596761Y40870239D01*
X11501523Y40822620D01*
X11120571Y40822620D01*
X11120571Y41822620D01*
X11453904Y41822620D01*
X11549142Y41775000D01*
X11596761Y41727381D01*
X11644380Y41632143D01*
X11644380Y41536905D01*
X11596761Y41441667D01*
X11549142Y41394048D01*
X11453904Y41346429D01*
X11120571Y41346429D01*
X11882476Y40727381D02*
X12644380Y40727381D01*
X12739619Y41822620D02*
X13072952Y40822620D01*
X13406285Y41822620D01*
X14311047Y40917858D02*
X14263428Y40870239D01*
X14120571Y40822620D01*
X14025333Y40822620D01*
X13882476Y40870239D01*
X13787238Y40965477D01*
X13739619Y41060715D01*
X13692000Y41251191D01*
X13692000Y41394048D01*
X13739619Y41584524D01*
X13787238Y41679762D01*
X13882476Y41775000D01*
X14025333Y41822620D01*
X14120571Y41822620D01*
X14263428Y41775000D01*
X14311047Y41727381D01*
X15311047Y40917858D02*
X15263428Y40870239D01*
X15120571Y40822620D01*
X15025333Y40822620D01*
X14882476Y40870239D01*
X14787238Y40965477D01*
X14739619Y41060715D01*
X14692000Y41251191D01*
X14692000Y41394048D01*
X14739619Y41584524D01*
X14787238Y41679762D01*
X14882476Y41775000D01*
X15025333Y41822620D01*
X15120571Y41822620D01*
X15263428Y41775000D01*
X15311047Y41727381D01*
X11731666Y46942120D02*
X11731666Y46227834D01*
X11684047Y46084977D01*
X11588809Y45989739D01*
X11445952Y45942120D01*
X11350714Y45942120D01*
X12731666Y45942120D02*
X12160238Y45942120D01*
X12445952Y45942120D02*
X12445952Y46942120D01*
X12350714Y46799262D01*
X12255476Y46704024D01*
X12160238Y46656405D01*
%TO.C,D1*%
X1849857Y23995120D02*
X1373666Y23995120D01*
X1373666Y24995120D01*
X2183190Y24518929D02*
X2516523Y24518929D01*
X2659380Y23995120D02*
X2183190Y23995120D01*
X2183190Y24995120D01*
X2659380Y24995120D01*
X3087952Y23995120D02*
X3087952Y24995120D01*
X3326047Y24995120D01*
X3468904Y24947500D01*
X3564142Y24852262D01*
X3611761Y24757024D01*
X3659380Y24566548D01*
X3659380Y24423691D01*
X3611761Y24233215D01*
X3564142Y24137977D01*
X3468904Y24042739D01*
X3326047Y23995120D01*
X3087952Y23995120D01*
X3849857Y23899881D02*
X4611761Y23899881D01*
X4707000Y24995120D02*
X5040333Y23995120D01*
X5373666Y24995120D01*
X5707000Y24518929D02*
X6040333Y24518929D01*
X6183190Y23995120D02*
X5707000Y23995120D01*
X5707000Y24995120D01*
X6183190Y24995120D01*
X7183190Y23995120D02*
X6849857Y24471310D01*
X6611761Y23995120D02*
X6611761Y24995120D01*
X6992714Y24995120D01*
X7087952Y24947500D01*
X7135571Y24899881D01*
X7183190Y24804643D01*
X7183190Y24661786D01*
X7135571Y24566548D01*
X7087952Y24518929D01*
X6992714Y24471310D01*
X6611761Y24471310D01*
X7611761Y23995120D02*
X7611761Y24995120D01*
X7849857Y24995120D01*
X7992714Y24947500D01*
X8087952Y24852262D01*
X8135571Y24757024D01*
X8183190Y24566548D01*
X8183190Y24423691D01*
X8135571Y24233215D01*
X8087952Y24137977D01*
X7992714Y24042739D01*
X7849857Y23995120D01*
X7611761Y23995120D01*
X8611761Y24518929D02*
X8945095Y24518929D01*
X9087952Y23995120D02*
X8611761Y23995120D01*
X8611761Y24995120D01*
X9087952Y24995120D01*
X4468904Y21328120D02*
X4468904Y22328120D01*
X4707000Y22328120D01*
X4849857Y22280500D01*
X4945095Y22185262D01*
X4992714Y22090024D01*
X5040333Y21899548D01*
X5040333Y21756691D01*
X4992714Y21566215D01*
X4945095Y21470977D01*
X4849857Y21375739D01*
X4707000Y21328120D01*
X4468904Y21328120D01*
X5992714Y21328120D02*
X5421285Y21328120D01*
X5707000Y21328120D02*
X5707000Y22328120D01*
X5611761Y22185262D01*
X5516523Y22090024D01*
X5421285Y22042405D01*
%TD*%
M02*
