M48
; DRILL file {KiCad (5.1.10)-1} date 09/09/21 10:10:39
; FORMAT={-:-/ absolute / inch / decimal}
; #@! TF.CreationDate,2021-09-09T10:10:39-05:00
; #@! TF.GenerationSoftware,Kicad,Pcbnew,(5.1.10)-1
; #@! TF.FileFunction,Plated,1,2,PTH
FMAT,2
INCH
T1C0.0236
T2C0.0276
T3C0.0315
T4C0.0354
T5C0.0598
T6C0.0984
%
G90
G05
T1
X1.665Y1.3075
X1.8832Y1.3075
T2
X0.785Y1.4525
X0.785Y0.4525
X0.81Y1.1225
X0.81Y0.9375
X0.885Y1.4525
X0.885Y0.4525
X0.985Y1.4525
X0.985Y0.4525
X1.085Y1.4525
X1.085Y0.4525
X1.11Y1.1225
X1.11Y0.9375
X1.185Y1.4525
X1.185Y0.4525
X1.285Y1.4525
X1.285Y0.4525
X1.385Y1.4525
X1.385Y0.4525
X1.485Y1.4525
X1.485Y0.4525
X1.585Y1.4525
X1.585Y0.4525
X1.685Y1.4525
X1.685Y0.4525
X1.785Y1.4525
X1.785Y0.4525
X1.885Y1.4525
X1.885Y0.4525
X1.985Y1.4525
X1.985Y0.4525
X2.085Y1.4525
X2.085Y0.4525
X2.185Y1.4525
X2.185Y0.4525
T3
X0.375Y0.2025
X0.4734Y0.2025
X0.59Y1.4259
X0.59Y1.3275
X1.63Y0.2309
X1.63Y0.1325
T4
X0.135Y0.5675
X0.155Y0.8575
X0.235Y0.5675
X0.255Y0.8575
X0.335Y0.5675
X0.425Y1.7175
X0.525Y1.7175
X0.66Y0.2025
X0.76Y0.2025
X0.86Y0.2025
X0.885Y1.7025
X0.96Y0.2025
X0.985Y1.7025
X1.06Y0.2025
X1.085Y1.7025
X1.16Y0.2025
X1.185Y1.7025
X1.26Y0.2025
X1.285Y1.7025
X1.36Y0.2025
X1.385Y1.7025
X1.485Y1.7025
X1.585Y1.7025
X1.775Y0.2025
X1.81Y1.7075
X1.875Y0.2025
X1.91Y1.7075
X1.975Y0.2025
X2.01Y1.7075
X2.075Y0.2025
X2.11Y1.7075
T5
X0.175Y1.35
X0.175Y1.15
T6
X0.125Y0.1425
X0.135Y1.8225
X2.335Y1.8275
X2.335Y0.1425
T0
M30
