%TF.GenerationSoftware,KiCad,Pcbnew,(5.1.10)-1*%
%TF.CreationDate,2021-09-09T10:08:14-05:00*%
%TF.ProjectId,ControlMotores,436f6e74-726f-46c4-9d6f-746f7265732e,rev?*%
%TF.SameCoordinates,PX6bac358PY737c164*%
%TF.FileFunction,Copper,L2,Bot*%
%TF.FilePolarity,Positive*%
%FSLAX46Y46*%
G04 Gerber Fmt 4.6, Leading zero omitted, Abs format (unit mm)*
G04 Created by KiCad (PCBNEW (5.1.10)-1) date 2021-09-09 10:08:14*
%MOMM*%
%LPD*%
G01*
G04 APERTURE LIST*
%TA.AperFunction,ComponentPad*%
%ADD10C,1.600000*%
%TD*%
%TA.AperFunction,ComponentPad*%
%ADD11O,2.000000X1.400000*%
%TD*%
%TA.AperFunction,ComponentPad*%
%ADD12C,5.000000*%
%TD*%
%TA.AperFunction,ComponentPad*%
%ADD13O,1.300000X2.200000*%
%TD*%
%TA.AperFunction,ComponentPad*%
%ADD14C,3.000000*%
%TD*%
%TA.AperFunction,ComponentPad*%
%ADD15R,3.000000X3.000000*%
%TD*%
%TA.AperFunction,ComponentPad*%
%ADD16O,1.400000X1.400000*%
%TD*%
%TA.AperFunction,ComponentPad*%
%ADD17C,1.400000*%
%TD*%
%TA.AperFunction,ComponentPad*%
%ADD18R,1.300000X2.200000*%
%TD*%
%TA.AperFunction,ComponentPad*%
%ADD19R,1.700000X1.700000*%
%TD*%
%TA.AperFunction,ViaPad*%
%ADD20C,1.600000*%
%TD*%
%TA.AperFunction,Conductor*%
%ADD21C,0.350000*%
%TD*%
G04 APERTURE END LIST*
D10*
%TO.P,C3,2*%
%TO.N,GND*%
X41402000Y5865500D03*
%TO.P,C3,1*%
%TO.N,+5VA*%
X41402000Y3365500D03*
%TD*%
%TO.P,C2,2*%
%TO.N,GND*%
X12025000Y5143500D03*
%TO.P,C2,1*%
%TO.N,+5VA*%
X9525000Y5143500D03*
%TD*%
D11*
%TO.P,C1,2*%
%TO.N,GND*%
X14986000Y36218500D03*
%TO.P,C1,1*%
%TO.N,+5VA*%
X14986000Y33718500D03*
%TD*%
D12*
%TO.P,MH3,1*%
%TO.N,N/C*%
X59309000Y46418500D03*
%TD*%
%TO.P,MH4,1*%
%TO.N,N/C*%
X3429000Y46291500D03*
%TD*%
%TO.P,MH2,1*%
%TO.N,N/C*%
X59309000Y3619500D03*
%TD*%
%TO.P,MH1,1*%
%TO.N,N/C*%
X3175000Y3619500D03*
%TD*%
D13*
%TO.P,U1,15*%
%TO.N,SDA*%
X55499000Y11493500D03*
%TO.P,U1,16*%
%TO.N,Net-(U1-Pad16)*%
X55499000Y36893500D03*
%TO.P,U1,14*%
%TO.N,COL3*%
X52959000Y11493500D03*
%TO.P,U1,17*%
%TO.N,Net-(U1-Pad17)*%
X52959000Y36893500D03*
%TO.P,U1,13*%
%TO.N,Net-(U1-Pad13)*%
X50419000Y11493500D03*
%TO.P,U1,18*%
%TO.N,Net-(U1-Pad18)*%
X50419000Y36893500D03*
%TO.P,U1,12*%
%TO.N,Net-(U1-Pad12)*%
X47879000Y11493500D03*
%TO.P,U1,19*%
%TO.N,SW_Start*%
X47879000Y36893500D03*
%TO.P,U1,11*%
%TO.N,EXT_D21*%
X45339000Y11493500D03*
%TO.P,U1,20*%
%TO.N,EXT_D35*%
X45339000Y36893500D03*
%TO.P,U1,10*%
%TO.N,COL4*%
X42799000Y11493500D03*
%TO.P,U1,21*%
%TO.N,COL2*%
X42799000Y36893500D03*
%TO.P,U1,9*%
%TO.N,SCK*%
X40259000Y11493500D03*
%TO.P,U1,22*%
%TO.N,COL1*%
X40259000Y36893500D03*
%TO.P,U1,8*%
%TO.N,CS*%
X37719000Y11493500D03*
%TO.P,U1,23*%
%TO.N,ROW4*%
X37719000Y36893500D03*
%TO.P,U1,7*%
%TO.N,TX*%
X35179000Y11493500D03*
%TO.P,U1,24*%
%TO.N,STOP*%
X35179000Y36893500D03*
%TO.P,U1,6*%
%TO.N,RX*%
X32639000Y11493500D03*
%TO.P,U1,25*%
%TO.N,START*%
X32639000Y36893500D03*
%TO.P,U1,5*%
%TO.N,A0*%
X30099000Y11493500D03*
%TO.P,U1,26*%
%TO.N,ROW3*%
X30099000Y36893500D03*
%TO.P,U1,4*%
%TO.N,RST*%
X27559000Y11493500D03*
%TO.P,U1,27*%
%TO.N,ROW2*%
X27559000Y36893500D03*
%TO.P,U1,3*%
%TO.N,EXT_D15*%
X25019000Y11493500D03*
%TO.P,U1,28*%
%TO.N,ROW1*%
X25019000Y36893500D03*
%TO.P,U1,2*%
%TO.N,GND*%
X22479000Y11493500D03*
%TO.P,U1,29*%
X22479000Y36893500D03*
%TO.P,U1,1*%
%TO.N,Net-(U1-Pad1)*%
X19939000Y11493500D03*
%TO.P,U1,30*%
%TO.N,+5VA*%
X19939000Y36893500D03*
%TD*%
D14*
%TO.P,SW1,2*%
%TO.N,SW_Start*%
X4445000Y29210000D03*
D15*
%TO.P,SW1,1*%
%TO.N,+5VA*%
X4445000Y34290000D03*
%TD*%
D16*
%TO.P,R2,2*%
%TO.N,GND*%
X28194000Y23812500D03*
D17*
%TO.P,R2,1*%
%TO.N,Net-(D1-Pad1)*%
X20574000Y23812500D03*
%TD*%
D16*
%TO.P,R1,2*%
%TO.N,GND*%
X28194000Y28511500D03*
D17*
%TO.P,R1,1*%
%TO.N,SW_Start*%
X20574000Y28511500D03*
%TD*%
D13*
%TO.P,J6,3*%
%TO.N,EXT_D35*%
X3429000Y14414500D03*
%TO.P,J6,2*%
%TO.N,EXT_D21*%
X5969000Y14414500D03*
D18*
%TO.P,J6,1*%
%TO.N,EXT_D15*%
X8509000Y14414500D03*
%TD*%
D13*
%TO.P,J5,4*%
%TO.N,+5VA*%
X52705000Y5143500D03*
%TO.P,J5,3*%
%TO.N,TX*%
X50165000Y5143500D03*
%TO.P,J5,2*%
%TO.N,RX*%
X47625000Y5143500D03*
D18*
%TO.P,J5,1*%
%TO.N,GND*%
X45085000Y5143500D03*
%TD*%
D13*
%TO.P,J4,8*%
%TO.N,COL4*%
X40259000Y43243500D03*
%TO.P,J4,7*%
%TO.N,COL3*%
X37719000Y43243500D03*
%TO.P,J4,6*%
%TO.N,COL2*%
X35179000Y43243500D03*
%TO.P,J4,5*%
%TO.N,COL1*%
X32639000Y43243500D03*
%TO.P,J4,4*%
%TO.N,ROW4*%
X30099000Y43243500D03*
%TO.P,J4,3*%
%TO.N,ROW3*%
X27559000Y43243500D03*
%TO.P,J4,2*%
%TO.N,ROW2*%
X25019000Y43243500D03*
D18*
%TO.P,J4,1*%
%TO.N,ROW1*%
X22479000Y43243500D03*
%TD*%
D13*
%TO.P,J3,4*%
%TO.N,STOP*%
X53594000Y43370500D03*
%TO.P,J3,3*%
%TO.N,START*%
X51054000Y43370500D03*
%TO.P,J3,2*%
%TO.N,GND*%
X48514000Y43370500D03*
D19*
%TO.P,J3,1*%
%TO.N,+5VA*%
X45974000Y43370500D03*
%TD*%
D13*
%TO.P,J2,8*%
%TO.N,+5VA*%
X34544000Y5143500D03*
%TO.P,J2,7*%
%TO.N,SCK*%
X32004000Y5143500D03*
%TO.P,J2,6*%
%TO.N,SDA*%
X29464000Y5143500D03*
%TO.P,J2,5*%
%TO.N,A0*%
X26924000Y5143500D03*
%TO.P,J2,4*%
%TO.N,RST*%
X24384000Y5143500D03*
%TO.P,J2,3*%
%TO.N,CS*%
X21844000Y5143500D03*
%TO.P,J2,2*%
%TO.N,GND*%
X19304000Y5143500D03*
D18*
%TO.P,J2,1*%
%TO.N,+5VA*%
X16764000Y5143500D03*
%TD*%
D13*
%TO.P,J1,2*%
%TO.N,GND*%
X13335000Y43624500D03*
D18*
%TO.P,J1,1*%
%TO.N,+5VA*%
X10795000Y43624500D03*
%TD*%
D13*
%TO.P,D1,2*%
%TO.N,SW_Start*%
X3937000Y21780500D03*
D18*
%TO.P,D1,1*%
%TO.N,Net-(D1-Pad1)*%
X6477000Y21780500D03*
%TD*%
D20*
%TO.N,SW_Start*%
X47834000Y33210500D03*
X42291000Y33210500D03*
%TD*%
D21*
%TO.N,SW_Start*%
X5143500Y28511500D02*
X4445000Y29210000D01*
X20574000Y28511500D02*
X5143500Y28511500D01*
X3937000Y21780500D02*
X3937000Y27305000D01*
X3937000Y27305000D02*
X5143500Y28511500D01*
X47834000Y36848500D02*
X47879000Y36893500D01*
X47834000Y33210500D02*
X47834000Y36848500D01*
X17780000Y37401500D02*
X17780000Y35877500D01*
X20574000Y28511500D02*
X21273999Y29211499D01*
X20955000Y38671500D02*
X19050000Y38671500D01*
X25781000Y33210500D02*
X42291000Y33210500D01*
X23749000Y35242500D02*
X25781000Y33210500D01*
X12827000Y34988500D02*
X12065000Y35750500D01*
X23749000Y38417500D02*
X23749000Y35242500D01*
X16637000Y45529500D02*
X23749000Y38417500D01*
X12573000Y45529500D02*
X16637000Y45529500D01*
X12065000Y45021500D02*
X12573000Y45529500D01*
X16891000Y34988500D02*
X12827000Y34988500D01*
X17780000Y35877500D02*
X16891000Y34988500D01*
X19050000Y38671500D02*
X17780000Y37401500D01*
X21273999Y38352501D02*
X20955000Y38671500D01*
X21273999Y29211499D02*
X21273999Y38352501D01*
X12065000Y35750500D02*
X12065000Y45021500D01*
%TO.N,Net-(D1-Pad1)*%
X20574000Y23812500D02*
X18542000Y21780500D01*
X18542000Y21780500D02*
X6477000Y21780500D01*
%TO.N,GND*%
X45085000Y4717100D02*
X42550400Y4717100D01*
X42550400Y4717100D02*
X41402000Y5865500D01*
X45085000Y5143500D02*
X45085000Y4717100D01*
X19304000Y6668800D02*
X19304000Y6793200D01*
X19304000Y6793200D02*
X22479000Y9968200D01*
X28194000Y28511500D02*
X28194000Y23812500D01*
X22479000Y11493500D02*
X22479000Y9968200D01*
X19304000Y5143500D02*
X19304000Y6668800D01*
X17100900Y38333400D02*
X14986000Y36218500D01*
X28194000Y29739000D02*
X28194000Y29636800D01*
X28194000Y28511500D02*
X28194000Y29636800D01*
X13930000Y7048500D02*
X12025000Y5143500D01*
X18924300Y7048500D02*
X13930000Y7048500D01*
X19304000Y6668800D02*
X18924300Y7048500D01*
X46863000Y45021500D02*
X48514000Y43370500D01*
X45054200Y45021500D02*
X46863000Y45021500D01*
X44687400Y44654700D02*
X45054200Y45021500D01*
X18201000Y39433500D02*
X17100900Y38333400D01*
X21336000Y39433500D02*
X18201000Y39433500D01*
X22479000Y38290500D02*
X21336000Y39433500D01*
X22479000Y36893500D02*
X22479000Y38290500D01*
X18161000Y39393500D02*
X17100900Y38333400D01*
X18161000Y39433500D02*
X18161000Y39393500D01*
X17018000Y39433500D02*
X18161000Y39433500D01*
X13335000Y43116500D02*
X17018000Y39433500D01*
X13335000Y43624500D02*
X13335000Y43116500D01*
X45972700Y2730500D02*
X45085000Y3618200D01*
X51435000Y4000500D02*
X50165000Y2730500D01*
X50165000Y2730500D02*
X45972700Y2730500D01*
X51435000Y7937500D02*
X51435000Y4000500D01*
X49149000Y10223500D02*
X51435000Y7937500D01*
X48514000Y38925500D02*
X49149000Y38290500D01*
X47244000Y38925500D02*
X48514000Y38925500D01*
X44196000Y41973500D02*
X47244000Y38925500D01*
X45085000Y3618200D02*
X45085000Y4717100D01*
X49149000Y38290500D02*
X49149000Y10223500D01*
X44196000Y44163300D02*
X44196000Y41973500D01*
X44687400Y44654700D02*
X44196000Y44163300D01*
X7961700Y7214800D02*
X9953700Y7214800D01*
X2032000Y16192500D02*
X2032000Y13144500D01*
X2749800Y16910300D02*
X2032000Y16192500D01*
X2032000Y13144500D02*
X7961700Y7214800D01*
X4008100Y16910300D02*
X2749800Y16910300D01*
X9953700Y7214800D02*
X12025000Y5143500D01*
X5957300Y18859500D02*
X4008100Y16910300D01*
X23241000Y18859500D02*
X5957300Y18859500D01*
X28194000Y23812500D02*
X23241000Y18859500D01*
X27474500Y29739000D02*
X28194000Y29739000D01*
X22479000Y34734500D02*
X27474500Y29739000D01*
X22479000Y36893500D02*
X22479000Y34734500D01*
X40005000Y45529500D02*
X43812600Y45529500D01*
X40005000Y41211500D02*
X38989000Y42227500D01*
X41656000Y41211500D02*
X40005000Y41211500D01*
X43812600Y45529500D02*
X44687400Y44654700D01*
X38989000Y42227500D02*
X38989000Y44513500D01*
X44069000Y38798500D02*
X41656000Y41211500D01*
X44069000Y31432500D02*
X44069000Y38798500D01*
X42375500Y29739000D02*
X44069000Y31432500D01*
X38989000Y44513500D02*
X40005000Y45529500D01*
X28194000Y29739000D02*
X42375500Y29739000D01*
%TO.N,+5VA*%
X34544000Y5143500D02*
X34544000Y4017600D01*
X16764000Y5143500D02*
X16764000Y3909100D01*
X10795000Y36789600D02*
X8869900Y36789600D01*
X8869900Y36789600D02*
X6370300Y34290000D01*
X10795000Y36789600D02*
X10795000Y43624500D01*
X4445000Y34290000D02*
X6370300Y34290000D01*
X40132000Y4635500D02*
X41402000Y3365500D01*
X34544000Y4635500D02*
X40132000Y4635500D01*
X34544000Y4017600D02*
X34544000Y4635500D01*
X45974000Y42227500D02*
X45974000Y43370500D01*
X48260000Y39941500D02*
X45974000Y42227500D01*
X51689000Y38671500D02*
X50419000Y39941500D01*
X51689000Y10223500D02*
X51689000Y38671500D01*
X52705000Y9207500D02*
X51689000Y10223500D01*
X50419000Y39941500D02*
X48260000Y39941500D01*
X52705000Y5143500D02*
X52705000Y9207500D01*
X42672000Y2095500D02*
X41402000Y3365500D01*
X51308000Y2095500D02*
X42672000Y2095500D01*
X52705000Y3492500D02*
X51308000Y2095500D01*
X52705000Y5143500D02*
X52705000Y3492500D01*
X18288000Y33718500D02*
X14986000Y33718500D01*
X19939000Y35369500D02*
X18288000Y33718500D01*
X19939000Y36893500D02*
X19939000Y35369500D01*
X10795000Y34861500D02*
X10795000Y36789600D01*
X11938000Y33718500D02*
X10795000Y34861500D01*
X14986000Y33718500D02*
X11938000Y33718500D01*
X4381500Y34290000D02*
X4445000Y34290000D01*
X1270000Y31178500D02*
X4381500Y34290000D01*
X8636000Y5143500D02*
X1270000Y12509500D01*
X1270000Y12509500D02*
X1270000Y31178500D01*
X9525000Y5143500D02*
X8636000Y5143500D01*
X34163000Y3238500D02*
X34544000Y3619500D01*
X31496000Y3238500D02*
X34163000Y3238500D01*
X30734000Y6413500D02*
X30734000Y4000500D01*
X30226000Y6921500D02*
X30734000Y6413500D01*
X28829000Y6921500D02*
X30226000Y6921500D01*
X28194000Y6286500D02*
X28829000Y6921500D01*
X30734000Y4000500D02*
X31496000Y3238500D01*
X28194000Y3746500D02*
X28194000Y6286500D01*
X27559000Y3111500D02*
X28194000Y3746500D01*
X34544000Y3619500D02*
X34544000Y4017600D01*
X17561600Y3111500D02*
X27559000Y3111500D01*
X16764000Y3909100D02*
X17561600Y3111500D01*
X11557000Y3111500D02*
X9525000Y5143500D01*
X15966400Y3111500D02*
X11557000Y3111500D01*
X16764000Y3909100D02*
X15966400Y3111500D01*
%TO.N,SCK*%
X41654700Y8572500D02*
X40259000Y9968200D01*
X46990000Y8572500D02*
X41654700Y8572500D01*
X48895000Y6667500D02*
X46990000Y8572500D01*
X48895000Y4000500D02*
X48895000Y6667500D01*
X48260000Y3365500D02*
X48895000Y4000500D01*
X40259000Y9968200D02*
X40259000Y11493500D01*
X47117000Y3365500D02*
X48260000Y3365500D01*
X46355000Y4127500D02*
X47117000Y3365500D01*
X46355000Y6540500D02*
X46355000Y4127500D01*
X45593000Y7302500D02*
X46355000Y6540500D01*
X32637700Y7302500D02*
X45593000Y7302500D01*
X32004000Y6668800D02*
X32637700Y7302500D01*
X32004000Y5143500D02*
X32004000Y6668800D01*
%TO.N,SDA*%
X29464000Y3618200D02*
X29464000Y5143500D01*
X52578000Y1333500D02*
X31748700Y1333500D01*
X31748700Y1333500D02*
X29464000Y3618200D01*
X55499000Y4254500D02*
X52578000Y1333500D01*
X55499000Y11493500D02*
X55499000Y4254500D01*
%TO.N,A0*%
X26924000Y5143500D02*
X26924000Y6668800D01*
X26924000Y6668800D02*
X30099000Y9843800D01*
X30099000Y9843800D02*
X30099000Y11493500D01*
%TO.N,RST*%
X24384000Y5143500D02*
X24384000Y6668800D01*
X24384000Y6668800D02*
X27559000Y9843800D01*
X27559000Y9843800D02*
X27559000Y11493500D01*
%TO.N,CS*%
X37211000Y9461500D02*
X37719000Y9969500D01*
X37719000Y9969500D02*
X37719000Y11493500D01*
X34671000Y9461500D02*
X37211000Y9461500D01*
X33020000Y13525500D02*
X33909000Y12636500D01*
X26289000Y12890500D02*
X26924000Y13525500D01*
X26289000Y10350500D02*
X26289000Y12890500D01*
X23241000Y7302500D02*
X26289000Y10350500D01*
X33909000Y10223500D02*
X34671000Y9461500D01*
X22479000Y7302500D02*
X23241000Y7302500D01*
X33909000Y12636500D02*
X33909000Y10223500D01*
X21844000Y6667500D02*
X22479000Y7302500D01*
X26924000Y13525500D02*
X33020000Y13525500D01*
X21844000Y5143500D02*
X21844000Y6667500D01*
%TO.N,STOP*%
X53594000Y44895800D02*
X53594000Y43370500D01*
X35814000Y47053500D02*
X51436300Y47053500D01*
X33909000Y41719500D02*
X33909000Y45148500D01*
X51436300Y47053500D02*
X53594000Y44895800D01*
X35179000Y40449500D02*
X33909000Y41719500D01*
X33909000Y45148500D02*
X35814000Y47053500D01*
X35179000Y36893500D02*
X35179000Y40449500D01*
%TO.N,START*%
X32639000Y40449500D02*
X32639000Y36893500D01*
X31369000Y41719500D02*
X32639000Y40449500D01*
X31369000Y44513500D02*
X31369000Y41719500D01*
X34798000Y47942500D02*
X31369000Y44513500D01*
X52451000Y47942500D02*
X34798000Y47942500D01*
X54991000Y41973500D02*
X54991000Y45402500D01*
X54356000Y41338500D02*
X54991000Y41973500D01*
X52451000Y41338500D02*
X54356000Y41338500D01*
X54991000Y45402500D02*
X52451000Y47942500D01*
X51054000Y42735500D02*
X52451000Y41338500D01*
X51054000Y43370500D02*
X51054000Y42735500D01*
%TO.N,COL4*%
X46228000Y9842500D02*
X44450000Y9842500D01*
X46609000Y10223500D02*
X46228000Y9842500D01*
X44450000Y9842500D02*
X42799000Y11493500D01*
X41656000Y43243500D02*
X46609000Y38290500D01*
X46609000Y38290500D02*
X46609000Y10223500D01*
X40259000Y43243500D02*
X41656000Y43243500D01*
%TO.N,COL3*%
X37719000Y45148500D02*
X37719000Y43243500D01*
X38862000Y46291500D02*
X37719000Y45148500D01*
X49784000Y44640500D02*
X48133000Y46291500D01*
X49784000Y41592500D02*
X49784000Y44640500D01*
X50419000Y40957500D02*
X49784000Y41592500D01*
X48133000Y46291500D02*
X38862000Y46291500D01*
X51476000Y40957500D02*
X50419000Y40957500D01*
X54229000Y38204500D02*
X51476000Y40957500D01*
X54229000Y14288800D02*
X54229000Y38204500D01*
X52959000Y13018800D02*
X54229000Y14288800D01*
X52959000Y11493500D02*
X52959000Y13018800D01*
%TO.N,COL2*%
X42799000Y37343500D02*
X42799000Y36893500D01*
X39947000Y40195500D02*
X42799000Y37343500D01*
X36777000Y40195500D02*
X39947000Y40195500D01*
X35179000Y41793500D02*
X36777000Y40195500D01*
X35179000Y43243500D02*
X35179000Y41793500D01*
%TO.N,COL1*%
X39624000Y38798500D02*
X40259000Y38163500D01*
X40259000Y38163500D02*
X40259000Y36893500D01*
X37211000Y38798500D02*
X39624000Y38798500D01*
X36449000Y35496500D02*
X36449000Y38036500D01*
X34544000Y34988500D02*
X35941000Y34988500D01*
X35941000Y34988500D02*
X36449000Y35496500D01*
X33909000Y35623500D02*
X34544000Y34988500D01*
X32639000Y41718200D02*
X33909000Y40448200D01*
X36449000Y38036500D02*
X37211000Y38798500D01*
X33909000Y40448200D02*
X33909000Y35623500D01*
X32639000Y43243500D02*
X32639000Y41718200D01*
%TO.N,ROW4*%
X37719000Y35368200D02*
X37719000Y36893500D01*
X36450300Y34099500D02*
X37719000Y35368200D01*
X31369000Y35496500D02*
X32766000Y34099500D01*
X31369000Y40448200D02*
X31369000Y35496500D01*
X30099000Y41718200D02*
X31369000Y40448200D01*
X32766000Y34099500D02*
X36450300Y34099500D01*
X30099000Y43243500D02*
X30099000Y41718200D01*
%TO.N,ROW3*%
X27559000Y43243500D02*
X27559000Y41718200D01*
X27559000Y41718200D02*
X30099000Y39178200D01*
X30099000Y39178200D02*
X30099000Y36893500D01*
%TO.N,ROW2*%
X25019000Y43243500D02*
X25019000Y41718200D01*
X25019000Y41718200D02*
X27559000Y39178200D01*
X27559000Y39178200D02*
X27559000Y36893500D01*
%TO.N,ROW1*%
X25019000Y36893500D02*
X25019000Y38418800D01*
X22479000Y43243500D02*
X22479000Y40958800D01*
X22479000Y40958800D02*
X25019000Y38418800D01*
%TO.N,TX*%
X35179000Y12943500D02*
X35179000Y11493500D01*
X47591311Y9242489D02*
X42510011Y9242489D01*
X41529000Y10223500D02*
X41529000Y13017500D01*
X35761000Y13525500D02*
X35179000Y12943500D01*
X42510011Y9242489D02*
X41529000Y10223500D01*
X50165000Y6668800D02*
X47591311Y9242489D01*
X50165000Y5143500D02*
X50165000Y6668800D01*
X41529000Y13017500D02*
X41021000Y13525500D01*
X41021000Y13525500D02*
X35761000Y13525500D01*
%TO.N,RX*%
X47625000Y6668800D02*
X47625000Y5143500D01*
X46356300Y7937500D02*
X47625000Y6668800D01*
X32639000Y9968200D02*
X34669700Y7937500D01*
X34669700Y7937500D02*
X46356300Y7937500D01*
X32639000Y11493500D02*
X32639000Y9968200D01*
%TO.N,EXT_D35*%
X45339000Y21145500D02*
X45339000Y36893500D01*
X41910000Y17716500D02*
X45339000Y21145500D01*
X6350000Y17716500D02*
X41910000Y17716500D01*
X3429000Y14795500D02*
X6350000Y17716500D01*
X3429000Y14414500D02*
X3429000Y14795500D01*
%TO.N,EXT_D21*%
X45339000Y13018800D02*
X45339000Y11493500D01*
X41911300Y16446500D02*
X45339000Y13018800D01*
X7112000Y16446500D02*
X41911300Y16446500D01*
X5969000Y15303500D02*
X7112000Y16446500D01*
X5969000Y14414500D02*
X5969000Y15303500D01*
%TO.N,EXT_D15*%
X25019000Y11493500D02*
X25019000Y13018800D01*
X8509000Y14414500D02*
X23623300Y14414500D01*
X23623300Y14414500D02*
X25019000Y13018800D01*
%TD*%
M02*
